ply
format ascii 1.0
comment PCL generated
element vertex 3165
property float x
property float y
property float z
element face 0
element camera 1
property float view_px
property float view_py
property float view_pz
property float x_axisx
property float x_axisy
property float x_axisz
property float y_axisx
property float y_axisy
property float y_axisz
property float z_axisx
property float z_axisy
property float z_axisz
property float focal
property float scalex
property float scaley
property float centerx
property float centery
property int viewportx
property int viewporty
property float k1
property float k2
end_header
0.34979546 -1.0953265 0
0.34794834 -1.0842522 0
0.34935349 -1.0794454 0
0.3485761 -1.0799974 0
0.34604463 -1.0738975 0
0.34744468 -1.0640178 0
0.34933209 -1.061956 0
0.34576038 -1.0541441 0
0.34218833 -1.0173521 0
0.34261283 -1.0105425 0
0.34366322 -1.0093238 0
0.34116918 -1.0041496 0
0.34342244 -0.99135321 0
0.33981937 -0.98347265 0
0.33749995 -0.9522326 0
0.33830151 -0.94132513 0
0.3363938 -0.93546474 0
0.33719328 -0.9192059 0
0.33481246 -0.91259277 0
0.33152729 -0.85251206 0
0.33106422 -0.84812176 0
0.32713631 -0.80464369 0
0.32592797 -0.7814613 0
0.34375811 -1.0964707 0
0.3400223 -1.0626938 0
0.34241119 -1.0617323 0
0.33852929 -1.0225732 0
0.34132299 -1.0185549 0
0.33852258 -1.0093341 0
0.3379201 -1.0128007 0
0.33628532 -1.0055667 0
0.33835661 -0.99321479 0
0.3374446 -0.97771639 0
0.33316612 -0.96160525 0
0.33280313 -0.95827824 0
0.33367556 -0.95371652 0
0.3359966 -0.94613051 0
0.33495632 -0.94441873 0
0.33482841 -0.9416073 0
0.33121544 -0.90556902 0
0.33024582 -0.89500594 0
0.32855961 -0.89497817 0
0.32780936 -0.88489628 0
0.33150232 -0.88228041 0
0.32899004 -0.87453532 0
0.32738563 -0.87158591 0
0.32990944 -0.86936975 0
0.32756153 -0.87028462 0
0.32877165 -0.86983812 0
0.33033958 -0.86623198 0
0.32764632 -0.85471535 0
0.32732973 -0.83910924 0
0.32498631 -0.83342177 0
0.32408354 -0.83369887 0
0.32451716 -0.82817459 0
0.32677042 -0.81537831 0
0.32463473 -0.80564326 0
0.32249194 -0.79926717 0
0.32189554 -0.80359071 0
0.32451081 -0.7983374 0
0.32135448 -0.78243059 0
0.3226231 -0.77141893 0
0.32031709 -0.76665711 0
0.32079104 -0.74799687 0
0.31970727 -0.74450243 0
0.31964204 -0.74182856 0
0.31758371 -0.73648131 0
0.32131359 -0.73760611 0
0.3176817 -0.73219317 0
0.32012558 -0.72234583 0
0.31665394 -0.71559715 0
0.31911856 -0.71085697 0
0.31682569 -0.70359313 0
0.31428814 -0.6966362 0
0.31384426 -0.69060081 0
0.31635335 -0.68342733 0
0.31347105 -0.67571414 0
0.315083 -0.67248958 0
0.31390569 -0.66597402 0
0.312269 -0.66858572 0
0.31565657 -0.65770751 0
0.31221625 -0.65102762 0
0.31458688 -0.64608121 0
0.31428659 -0.64289165 0
0.31196842 -0.63641596 0
0.31211588 -0.6209842 0
0.30942771 -0.61454046 0
0.30882713 -0.60816127 0
0.30808106 -0.60878211 0
0.30763721 -0.60274678 0
0.30883291 -0.58003801 0
0.30616811 -0.58265179 0
0.30615181 -0.57023525 0
0.30483332 -0.54962713 0
0.30166775 -0.51794475 0
0.29912385 -0.48115069 0
0.29602894 -0.440617 0
0.29166001 -0.37704191 0
0.33790275 -1.0971706 0
0.34120843 -1.0878 0
0.33767164 -1.0723733 0
0.33877996 -1.0687014 0
0.33646786 -1.0630827 0
0.33663607 -1.0527582 0
0.33432049 -1.0488189 0
0.33387053 -1.0419266 0
0.33499271 -1.0421308 0
0.33558592 -1.0228887 0
0.3361702 -1.0168513 0
0.33210406 -1.0045805 0
0.33428568 -1.0048513 0
0.33400458 -1.0000167 0
0.33069474 -0.99868459 0
0.33218783 -0.99322706 0
0.33254763 -0.98163557 0
0.32950771 -0.97920847 0
0.32876354 -0.96998352 0
0.33083066 -0.94692892 0
0.33019128 -0.94736201 0
0.32949767 -0.93656069 0
0.32577479 -0.93136996 0
0.32768747 -0.92852002 0
0.32973766 -0.92765903 0
0.32588992 -0.92008537 0
0.32540068 -0.92211312 0
0.32737795 -0.90955496 0
0.32720909 -0.90749741 0
0.32475632 -0.8849712 0
0.32454401 -0.88113093 0
0.32437515 -0.87907326 0
0.3259936 -0.87389076 0
0.32239053 -0.86601025 0
0.32170156 -0.86309665 0
0.3232007 -0.85849607 0
0.32190925 -0.85904914 0
0.31998634 -0.85033941 0
0.32153705 -0.83994657 0
0.3211872 -0.83411753 0
0.32256806 -0.82588291 0
0.3215428 -0.81182331 0
0.31965989 -0.80728263 0
0.31873026 -0.80088866 0
0.31663051 -0.79911005 0
0.31589851 -0.79159904 0
0.31904557 -0.7917304 0
0.31665769 -0.78847617 0
0.31528869 -0.76944441 0
0.31565166 -0.77277148 0
0.31625512 -0.76508898 0
0.31562737 -0.76934379 0
0.31548569 -0.75665218 0
0.31767339 -0.75778002 0
0.3132363 -0.75117093 0
0.31329292 -0.75045156 0
0.31586978 -0.74848837 0
0.31543905 -0.73995101 0
0.31419858 -0.73611283 0
0.31435111 -0.7257539 0
0.31156847 -0.72191882 0
0.31099814 -0.70604122 0
0.31317204 -0.69728887 0
0.31255138 -0.69818473 0
0.3122263 -0.6936754 0
0.30933538 -0.68256879 0
0.30859843 -0.684475 0
0.30905735 -0.67816263 0
0.31129041 -0.67122734 0
0.31065053 -0.67376822 0
0.30975673 -0.66084063 0
0.30731928 -0.65494686 0
0.30609703 -0.65367949 0
0.3071191 -0.65282047 0
0.30520931 -0.64160872 0
0.30611306 -0.63711578 0
0.30731803 -0.6301825 0
0.30468455 -0.63286507 0
0.30822688 -0.63146937 0
0.30573586 -0.62672353 0
0.30581567 -0.61986458 0
0.30456352 -0.61149758 0
0.30501235 -0.60882264 0
0.30544248 -0.60568488 0
0.30374599 -0.59339046 0
0.30185956 -0.59123629 0
0.30156535 -0.58890367 0
0.30084041 -0.57803363 0
0.30010232 -0.56966561 0
0.30440289 -0.57006997 0
0.30380836 -0.56454778 0
0.30148318 -0.56143105 0
0.301 -0.56431574 0
0.30022451 -0.55502206 0
0.30043972 -0.5448007 0
0.29990602 -0.54926169 0
0.30299038 -0.54925555 0
0.30242723 -0.54380214 0
0.29892936 -0.54276454 0
0.30185193 -0.5366348 0
0.29935181 -0.53060359 0
0.29723385 -0.52625424 0
0.29931536 -0.52546197 0
0.29862368 -0.50481492 0
0.29592144 -0.50650311 0
0.29809186 -0.49943024 0
0.29725176 -0.49984482 0
0.2959224 -0.50158018 0
0.29448271 -0.49069273 0
0.29578778 -0.48552966 0
0.29582009 -0.48067555 0
0.29436937 -0.47834846 0
0.29600397 -0.4703854 0
0.29505771 -0.46887985 0
0.29320359 -0.46187156 0
0.29604524 -0.45303354 0
0.29240665 -0.43438148 0
0.29379171 -0.43684959 0
0.29006323 -0.42869398 0
0.28993279 -0.42334619 0
0.29204053 -0.41613585 0
0.29267949 -0.41922477 0
0.29017937 -0.41319352 0
0.29060084 -0.4059554 0
0.29291996 -0.40821519 0
0.29155096 -0.38918343 0
0.28831276 -0.37478414 0
0.28916597 -0.37186757 0
0.28573781 -0.36690152 0
0.28538796 -0.36107242 0
0.28694376 -0.35575238 0
0.28443757 -0.3488642 0
0.28727221 -0.34409213 0
0.2855837 -0.32351589 0
0.28367391 -0.31230414 0
0.28354955 -0.30781323 0
0.28205934 -0.29920915 0
0.28243634 -0.2944043 0
0.27994329 -0.28501409 0
0.2824271 -0.2786288 0
0.28112686 -0.26059148 0
0.27899864 -0.24468255 0
0.27626699 -0.23645614 0
0.27819568 -0.21704258 0
0.27306977 -0.17572482 0
0.26918823 -0.11996771 0
0.26686081 -0.097716525 0
0.33656827 -1.0931262 0
0.335071 -1.087881 0
0.33283374 -1.0841136 0
0.33196393 -1.0456334 0
0.33100137 -1.0317113 0
0.33012387 -1.0312002 0
0.33047661 -1.0229677 0
0.32685694 -0.97369033 0
0.32519788 -0.96302867 0
0.32522923 -0.96309739 0
0.32206768 -0.90112942 0
0.32042858 -0.89520079 0
0.31926903 -0.89407092 0
0.31816 -0.89136463 0
0.31960323 -0.85428733 0
0.3190158 -0.84540617 0
0.31481501 -0.81708479 0
0.31350806 -0.78580838 0
0.3135682 -0.78340948 0
0.31299898 -0.77709907 0
0.30977392 -0.76019782 0
0.30990535 -0.76132977 0
0.30943492 -0.73131824 0
0.31055504 -0.72687811 0
0.30777976 -0.70237893 0
0.30877048 -0.70145124 0
0.30757639 -0.68533403 0
0.30590102 -0.66225576 0
0.30546322 -0.65707731 0
0.30414474 -0.63646919 0
0.30078471 -0.62011546 0
0.30017135 -0.59964025 0
0.30015314 -0.5970695 0
0.30046847 -0.58791125 0
0.299685 -0.58760643 0
0.30009335 -0.58287036 0
0.29927853 -0.58249676 0
0.2986567 -0.57311839 0
0.29468766 -0.56148225 0
0.29727155 -0.55616015 0
0.29530931 -0.5563705 0
0.29838762 -0.55550742 0
0.29608113 -0.55285352 0
0.2949118 -0.53805614 0
0.29438606 -0.53352833 0
0.29591566 -0.53462636 0
0.29591757 -0.52478057 0
0.29543439 -0.52766532 0
0.29581141 -0.52286047 0
0.29334471 -0.52224934 0
0.29430807 -0.51675838 0
0.29390767 -0.51250565 0
0.29403403 -0.50856477 0
0.29028031 -0.50119734 0
0.29115275 -0.49663565 0
0.29028738 -0.49783841 0
0.29168645 -0.4921746 0
0.29227281 -0.49148852 0
0.29107791 -0.4947843 0
0.29250225 -0.48833233 0
0.29068041 -0.4764699 0
0.28998581 -0.46988449 0
0.29142746 -0.4716332 0
0.29097751 -0.4647409 0
0.28981587 -0.45825964 0
0.28988814 -0.45757458 0
0.29080451 -0.45198056 0
0.28990781 -0.45311457 0
0.28964591 -0.4466348 0
0.28969693 -0.44224352 0
0.28954774 -0.43572587 0
0.28646129 -0.43108764 0
0.28675854 -0.43384874 0
0.28701019 -0.42876887 0
0.2866368 -0.42589024 0
0.28638345 -0.42880782 0
0.28813523 -0.41491145 0
0.28539145 -0.40497121 0
0.28572306 -0.40822953 0
0.28527313 -0.40133724 0
0.28726065 -0.40033871 0
0.28509215 -0.39756575 0
0.28407773 -0.39131251 0
0.28578863 -0.39430538 0
0.28540745 -0.38840756 0
0.28247979 -0.38875744 0
0.28496358 -0.38237217 0
0.28162947 -0.37761238 0
0.28278902 -0.37874228 0
0.28525364 -0.37400213 0
0.28228343 -0.36764655 0
0.28199181 -0.3685573 0
0.28501701 -0.36673418 0
0.28115615 -0.36166251 0
0.28076094 -0.36389658 0
0.28168479 -0.35212862 0
0.28158569 -0.34684956 0
0.2810286 -0.34225303 0
0.281625 -0.33792949 0
0.27980781 -0.33395481 0
0.2801722 -0.33025107 0
0.27988407 -0.32877538 0
0.27785307 -0.32799128 0
0.28037989 -0.32620355 0
0.27945939 -0.3210949 0
0.28048146 -0.32023594 0
0.28067747 -0.3116596 0
0.28092822 -0.31220964 0
0.2761777 -0.30491301 0
0.2785221 -0.30638462 0
0.27775556 -0.30240032 0
0.27804273 -0.28957784 0
0.27604309 -0.2888625 0
0.27588737 -0.28430286 0
0.27648732 -0.27829984 0
0.27842173 -0.27634123 0
0.27483079 -0.2701745 0
0.27728134 -0.27356622 0
0.27494144 -0.26549226 0
0.27578408 -0.2683211 0
0.27680615 -0.2674621 0
0.2740553 -0.26088083 0
0.27517137 -0.2602281 0
0.27443141 -0.26170585 0
0.27596799 -0.25803092 0
0.2738879 -0.25179237 0
0.27272788 -0.25347742 0
0.27308062 -0.24524488 0
0.27556857 -0.24956229 0
0.27343878 -0.24115118 0
0.27354512 -0.24260432 0
0.2746172 -0.24227694 0
0.27398017 -0.23004924 0
0.27174902 -0.22713877 0
0.27445829 -0.2220917 0
0.27265882 -0.22350277 0
0.27352563 -0.21526919 0
0.2728619 -0.21156749 0
0.27239883 -0.20717722 0
0.27241805 -0.20553213 0
0.27068734 -0.20793761 0
0.27228054 -0.20354326 0
0.26919711 -0.19862652 0
0.27238512 -0.19800408 0
0.27207011 -0.18985727 0
0.2694523 -0.19257419 0
0.27104902 -0.18650036 0
0.27059254 -0.18085909 0
0.26989299 -0.18369098 0
0.27018559 -0.17785734 0
0.26932022 -0.17906009 0
0.26945519 -0.17851256 0
0.26953545 -0.16883866 0
0.26759243 -0.16740394 0
0.27020159 -0.16129367 0
0.26851022 -0.15477906 0
0.26848593 -0.15135136 0
0.26841319 -0.15485135 0
0.26493242 -0.1461103 0
0.26830494 -0.14757988 0
0.26674497 -0.14219722 0
0.2648707 -0.14175692 0
0.26752946 -0.1382862 0
0.26665196 -0.13777509 0
0.26558736 -0.13192858 0
0.2642599 -0.12381817 0
0.2653133 -0.12302795 0
0.26512527 -0.12308677 0
0.26370335 -0.1178207 0
0.26291427 -0.11384399 0
0.26318511 -0.10711904 0
0.26280999 -0.1020781 0
0.26391584 -0.089865781 0
0.26324764 -0.092766441 0
0.2612763 -0.091691405 0
0.26229417 -0.080129728 0
0.26060697 -0.084317841 0
0.26315346 -0.078070059 0
0.26116323 -0.072404794 0
0.2610096 -0.062126778 0
0.26118806 -0.063361846 0
0.26021048 -0.061787557 0
0.26038867 -0.058423907 0
0.25945419 -0.050848771 0
0.2589972 -0.047315426 0
0.25855941 -0.042136986 0
0.26129395 -0.036301747 0
0.25781623 -0.028696166 0
0.25630683 -0.021737173 0
0.2580193 -0.016760917 0
0.25713027 -0.0107827 0
0.2551572 -0.0031866918 0
0.2570577 0.0020840573 0
0.25563481 0.0026628934 0
0.2563318 0.0080311997 0
0.25618821 0.010876996 0
0.25367787 0.028467901 0
0.25224328 0.033575535 0
0.2517246 0.04146225 0
0.25344315 0.045581583 0
0.25213394 0.050414219 0
0.2516405 0.059089124 0
0.25221163 0.062624499 0
0.24987431 0.067455068 0
0.24831118 0.087756306 0
0.24903394 0.096020721 0
0.24745578 0.10397415 0
0.24457707 0.15894514 0
0.24291095 0.1662479 0
0.24261165 0.17365335 0
0.32594627 -1.0430247 0
0.32596594 -1.0385646 0
0.2892867 -0.51618671 0
0.28607735 -0.45374152 0
0.27668521 -0.33725551 0
0.27312881 -0.31569061 0
0.27616367 -0.31304491 0
0.27330029 -0.27470636 0
0.26960289 -0.23763929 0
0.26889297 -0.21442148 0
0.26794255 -0.20221324 0
0.26696178 -0.18572037 0
0.26647142 -0.17747393 0
0.2645736 -0.15348592 0
0.26479906 -0.15482412 0
0.25941157 -0.13600682 0
0.26307416 -0.12910633 0
0.25895137 -0.1175549 0
0.25956091 -0.11072931 0
0.25754914 -0.10830013 0
0.25696677 -0.10449177 0
0.25589806 -0.088649578 0
0.25634289 -0.090469047 0
0.25923508 -0.079347692 0
0.25618556 -0.07774312 0
0.25595146 -0.073011577 0
0.25446635 -0.0694803 0
0.25837263 -0.06648881 0
0.2567257 -0.057540927 0
0.25697643 -0.058090966 0
0.25603625 -0.057442341 0
0.25543568 -0.05106321 0
0.25281018 -0.044756927 0
0.25604713 -0.03439188 0
0.25319475 -0.034485206 0
0.2518355 -0.029120969 0
0.25158575 -0.024355061 0
0.2526719 -0.015895793 0
0.25210732 -0.018180156 0
0.25274819 -0.011423324 0
0.25155121 -0.0093677361 0
0.25166029 0.0027737771 0
0.24982949 0.0014314754 0
0.25133473 0.0051751779 0
0.24982531 0.01213417 0
0.24964432 0.015905656 0
0.25153971 0.026956201 0
0.24979687 0.026264574 0
0.24902554 0.024855575 0
0.24723405 0.032433357 0
0.24742818 0.031163892 0
0.24717844 0.035929814 0
0.24763733 0.042242251 0
0.24802557 0.039703336 0
0.25044671 0.046226121 0
0.24798399 0.051331718 0
0.24713784 0.051774062 0
0.24712153 0.064190619 0
0.247347 0.062852405 0
0.24682124 0.067380182 0
0.24766839 0.0711537 0
0.24552515 0.074714817 0
0.24544616 0.087268889 0
0.24461216 0.085997373 0
0.24415582 0.092341281 0
0.24276504 0.097071633 0
0.24358691 0.10005696 0
0.24440879 0.10304234 0
0.24266593 0.10235071 0
0.24375567 0.10765942 0
0.24359891 0.11283325 0
0.24488689 0.11099986 0
0.24290226 0.12406299 0
0.24166787 0.12704423 0
0.24237856 0.12783374 0
0.24110167 0.13292617 0
0.24085496 0.13726358 0
0.2416909 0.14767386 0
0.24068598 0.15381131 0
0.23888348 0.15282874 0
0.23944247 0.158078 0
0.23797049 0.16411129 0
0.24070662 0.16248724 0
0.23881762 0.16788483 0
0.23829186 0.17241262 0
0.2400317 0.17282569 0
0.24132064 0.1759152 0
0.23799403 0.18684886 0
0.238506 0.19220121 0
0.23839585 0.18962692 0
0.23724078 0.19735919 0
0.23678218 0.20835181 0
0.23643841 0.21332398 0
0.23559225 0.21376635 0
0.23904569 0.20958848 0
0.23585096 0.22220515 0
0.23614518 0.21987249 0
0.23599818 0.22657149 0
0.23708825 0.23328553 0
0.23409484 0.23350158 0
0.23511387 0.23478903 0
0.23267035 0.24153973 0
0.23302308 0.24977225 0
0.23493578 0.25262216 0
0.23230322 0.25556946 0
0.23333842 0.25893047 0
0.23370138 0.2556034 0
0.23164991 0.27950671 0
0.23223834 0.27484143 0
0.2321098 0.29003504 0
0.2322665 0.28969127 0
0.32441875 -1.0935632 0
0.32235536 -1.0368578 0
0.2528083 -0.05460269 0
0.24609469 0.039424237 0
0.24369754 0.058453973 0
0.23845826 0.112823 0
0.24079357 0.11263677 0
0.23785564 0.12384648 0
0.23616524 0.13457698 0
0.23456788 0.14088528 0
0.23469745 0.17619282 0
0.23433192 0.18205632 0
0.23279919 0.19736592 0
0.23155266 0.20206103 0
0.2309086 0.21022277 0
0.23171417 0.22562467 0
0.23025431 0.22994414 0
0.2295981 0.23981974 0
0.22800075 0.24612808 0
0.22897932 0.24876964 0
0.22757708 0.25802439 0
0.22589782 0.26282516 0
0.22745459 0.27236107 0
0.22448532 0.28363952 0
0.22487964 0.28024369 0
0.22556607 0.27986655 0
0.22742616 0.28649145 0
0.22485119 0.29437411 0
0.22792952 0.29523715 0
0.31877571 -1.0981033 0
0.3175039 -1.0941963 0
0.23941357 0.01746154 0
0.24217239 0.019869078 0
0.23498099 0.076958239 0
0.23713733 0.075899139 0
0.23776509 0.080153957 0
0.23459373 0.083713025 0
0.23625568 0.087112963 0
0.23485215 0.12113206 0
0.23308402 0.11965225 0
0.23285975 0.13674304 0
0.23308791 0.13792977 0
0.230149 0.1449236 0
0.23250698 0.14876896 0
0.22740173 0.19876263 0
0.22855523 0.19848967 0
0.22821353 0.19811051 0
0.22692652 0.20486677 0
0.22652684 0.24231561 0
0.22520132 0.25956479 0
0.22382544 0.26004049 0
0.2217236 0.26717034 0
0.22374244 0.26810011 0
0.22453298 0.27115422 0
0.21946687 0.29827285 0
0.31377545 -1.0860407 0
0.31493503 -1.0871706 0
0.21588616 0.29287994 0
0.30982572 -1.0872496 0
0.21270825 0.29518804 0
0.20895919 0.29396069 0
0.21223961 0.30254316 0
0.21054631 0.29921198 0
0.30269566 -1.0981041 0
0.3031213 -1.1015687 0
0.30545449 -1.0956966 0
0.30494794 -1.0895237 0
0.20598704 0.29117754 0
0.20690899 0.2930997 0
0.20398131 0.29274979 0
0.29889911 -1.1013362 0
0.29902446 -1.1016113 0
0.20113201 0.29611319 0
0.20086254 0.29324085 0
0.19999342 0.29931602 0
0.20065826 0.30076858 0
0.29619992 -1.1034528 0
0.1950199 0.29893911 0
0.1946253 0.30045837 0
0.1954509 0.3009958 0
0.28940994 -1.1064689 0
0.29049051 -1.0950447 0
0.28941891 -1.0932642 0
0.19034092 0.29810619 0
0.19036418 0.29918003 0
0.19027284 0.30191123 0
0.28570959 -1.0958987 0
0.28356588 -1.092373 0
0.18336309 0.29620531 0
0.1826231 0.29472756 0
0.18533844 0.29891771 0
0.18562964 0.29701352 0
0.27801961 -1.1037831 0
0.2793752 -1.0963367 0
0.17911689 0.29367441 0
0.18175775 0.2935248 0
0.18095508 0.29218456 0
0.27374431 -1.1025906 0
0.2768479 -1.1009394 0
0.27494532 -1.1008588 0
0.17535743 0.29570764 0
0.17764218 0.29394507 0
0.17724484 0.29776937 0
0.17530181 0.29920411 0
0.17493485 0.29803678 0
0.27173859 -1.1010184 0
0.27037182 -1.1018281 0
0.16942421 0.29728764 0
0.2662462 -1.1050452 0
0.26387396 -1.1018254 0
0.26225486 -1.0946257 0
0.16465563 0.29266497 0
0.16794021 0.29054472 0
0.25759649 -1.0973811 0
0.16162784 0.29337826 0
0.16034998 0.29814211 0
0.25444335 -1.0963929 0
0.15604751 0.28870067 0
0.25113764 -1.1057634 0
0.25239125 -1.1070997 0
0.2489439 -1.1037787 0
0.24989814 -1.0970024 0
0.15216234 0.29720008 0
0.1524975 0.29562125 0
0.15246361 0.29822639 0
0.24557243 -1.1077533 0
0.14617668 0.28735796 0
0.14710964 0.29784051 0
0.23880108 -1.1015722 0
0.24137187 -1.0987521 0
0.13833266 0.29593384 0
0.23575827 -1.1132066 0
0.23336431 -1.1090956 0
0.23680751 -1.1017138 0
0.23275159 -1.1010026 0
0.13558598 0.29181245 0
0.13541105 0.29472703 0
0.13354892 0.29345345 0
0.13076481 0.29025778 0
0.13053682 0.29413235 0
0.13167463 0.29389375 0
0.2219305 -1.1046271 0
0.2253091 -1.1069536 0
0.12616046 0.29146516 0
0.12254683 0.29360032 0
0.12769355 0.29275364 0
0.22129668 -1.108025 0
0.22093371 -1.1046979 0
0.2191029 -1.1060402 0
0.1215187 0.29359829 0
0.21301602 -1.1045449 0
0.21497919 -1.0994117 0
0.11590701 0.28898948 0
0.11400745 0.28864163 0
0.11565726 0.29375541 0
0.21024404 -1.1094544 0
0.21040682 -1.1106552 0
0.21006514 -1.1110344 0
0.20991242 -1.1061962 0
0.20879732 -1.102633 0
0.11156902 0.2903195 0
0.11151768 0.29031807 0
0.11059719 0.28916025 0
0.20648843 -1.1119328 0
0.20302893 -1.1068981 0
0.20724155 -1.1079531 0
0.10634349 0.28852317 0
0.10792663 0.28928 0
0.10498551 0.29226565 0
0.10171083 0.28937086 0
0.10052686 0.28839576 0
0.10107447 0.2885094 0
0.10241087 0.29431069 0
0.19765483 -1.1145588 0
0.1968971 -1.1106509 0
0.1971256 -1.1124176 0
0.1951611 -1.1079792 0
0.094974443 0.28750268 0
0.097621039 0.29268727 0
0.1888091 -1.1154711 0
0.19146784 -1.1120003 0
0.090887196 0.28828266 0
0.090965547 0.28811079 0
0.088594317 0.2955465 0
0.18553716 -1.1129568 0
0.083878323 0.28785583 0
0.085659571 0.29183766 0
0.1799026 -1.1064 0
0.1790251 -1.105889 0
0.079856306 0.2859619 0
0.080856621 0.28771216 0
0.08079493 0.29206556 0
0.17742838 -1.1119628 0
0.17276229 -1.1056949 0
0.075878747 0.28650126 0
0.076977044 0.28618065 0
0.075233735 0.28974012 0
0.17134097 -1.1125754 0
0.16851036 -1.1135601 0
0.072016962 0.28594303 0
0.071710601 0.2899895 0
0.16569492 -1.1166869 0
0.16585256 -1.1121079 0
0.068161242 0.28452787 0
0.064883716 0.29000708 0
0.1606048 -1.1151209 0
0.062017731 0.2853038 0
0.058564298 0.28948164 0
0.15441781 -1.1125624 0
0.15528221 -1.1162825 0
0.054614559 0.28827277 0
0.14984639 -1.118883 0
0.15279327 -1.1168879 0
0.050075471 0.28609926 0
0.14754038 -1.1141211 0
0.045166347 0.28389391 0
0.13900708 -1.1199368 0
0.14073779 -1.1175313 0
0.14010587 -1.1110834 0
0.040734343 0.28543016 0
0.043141428 0.28382108 0
0.038759962 0.28693369 0
0.13393103 -1.1102388 0
0.033901382 0.28630468 0
0.13057274 -1.1165414 0
0.12919781 -1.1111429 0
0.030151831 0.28296942 0
0.029820206 0.28622773 0
0.12323529 -1.1141384 0
0.12596278 -1.1116621 0
0.093262643 -0.68985343 0
0.091245405 -0.65195721 0
0.090775356 -0.65233988 0
0.027865026 0.28937635 0
0.12259539 -1.1166793 0
0.12282086 -1.1180176 0
0.092246652 -0.69156933 0
0.091908008 -0.69237697 0
0.089000471 -0.6861589 0
0.090419449 -0.68791252 0
0.091684483 -0.68190002 0
0.089989603 -0.67777187 0
0.086847015 -0.67103815 0
0.086190812 -0.66116256 0
0.08780928 -0.65598005 0
0.089959562 -0.65618217 0
0.087340131 -0.65073282 0
0.0888566 -0.65433288 0
0.088118523 -0.64596486 0
0.085274629 -0.63496143 0
0.084772252 -0.63949126 0
0.055703983 -0.17610323 0
0.051898804 -0.17594203 0
0.052125186 -0.17165036 0
0.053931698 -0.16688034 0
0.05099795 -0.16637334 0
0.052359611 -0.15978386 0
0.051638823 -0.1596165 0
0.019460091 0.28356421 0
0.019946342 0.28531346 0
0.021927783 0.28716892 0
0.11329874 -1.1149151 0
0.11455841 -1.1171082 0
0.11533535 -1.1193712 0
0.086047813 -0.71627718 0
0.084844753 -0.71336466 0
0.086516798 -0.70703429 0
0.085053906 -0.70228636 0
0.086201333 -0.70170242 0
0.085669518 -0.69631767 0
0.08283776 -0.68702811 0
0.084619008 -0.68304628 0
0.086838052 -0.68424284 0
0.085165858 -0.67608315 0
0.085693508 -0.67076522 0
0.08316014 -0.67451096 0
0.085249647 -0.66472983 0
0.084641099 -0.6673395 0
0.08476229 -0.65691185 0
0.084294155 -0.64744878 0
0.082777686 -0.64384872 0
0.082442559 -0.64297688 0
0.082402572 -0.63880783 0
0.080981113 -0.63119811 0
0.080378637 -0.63466477 0
0.079077393 -0.62084329 0
0.079995371 -0.62341559 0
0.080703557 -0.62468398 0
0.079730414 -0.61580032 0
0.077687278 -0.61330241 0
0.049149223 -0.19412506 0
0.048279706 -0.18462512 0
0.048189215 -0.18273939 0
0.047433551 -0.18418276 0
0.047610376 -0.17725155 0
0.049227893 -0.17699191 0
0.048854869 -0.17730232 0
0.048911478 -0.1765829 0
0.049223762 -0.16699621 0
0.049714003 -0.16075255 0
0.046210025 -0.15815102 0
0.046357632 -0.15720941 0
0.046753846 -0.15075947 0
0.046606276 -0.15240808 0
0.046413112 -0.14621577 0
0.045657452 -0.14765914 0
0.044583265 -0.14263518 0
0.044457935 -0.14306717 0
0.018002322 0.28253233 0
0.016234202 0.28105253 0
0.016705247 0.28565109 0
0.017695962 0.2865788 0
0.10907207 -1.121992 0
0.10822684 -1.1159198 0
0.11249607 -1.1162554 0
0.080954805 -0.72877276 0
0.084297903 -0.72032779 0
0.082818158 -0.72187585 0
0.082072787 -0.71827424 0
0.081321619 -0.71311522 0
0.082501337 -0.70767719 0
0.081098102 -0.70263833 0
0.077684395 -0.62736404 0
0.074613132 -0.62486815 0
0.076094091 -0.61769676 0
0.074496724 -0.61138844 0
0.075913101 -0.61392528 0
0.07230296 -0.60940367 0
0.046741329 -0.21192893 0
0.047084004 -0.20733388 0
0.046120457 -0.19762766 0
0.042136192 -0.18384923 0
0.043358449 -0.18511663 0
0.045754306 -0.17938203 0
0.045679484 -0.17753066 0
0.040048301 -0.15480435 0
0.042307649 -0.14286499 0
0.039682157 -0.1365587 0
0.038704563 -0.13498439 0
0.038832821 -0.12119777 0
0.03813025 -0.12360121 0
0.012296608 0.27812979 0
0.011224988 0.27991036 0
0.013375277 0.27970818 0
0.10582491 -1.1207975 0
0.10411947 -1.1224148 0
0.077239633 -0.73260522 0
0.07676746 -0.72692955 0
0.078189902 -0.73032331 0
0.077075258 -0.72394526 0
0.068736017 -0.60901254 0
0.070497423 -0.60995775 0
0.068806045 -0.60344315 0
0.066994444 -0.60314035 0
0.069276161 -0.60447448 0
0.068524957 -0.59860849 0
0.067772828 -0.5983724 0
0.042690139 -0.21310143 0
0.039208803 -0.21317935 0
0.041386254 -0.20274758 0
0.039686896 -0.20522183 0
0.041236613 -0.19904487 0
0.042011965 -0.19384845 0
0.036904119 -0.14061134 0
0.037235752 -0.14386967 0
0.034366582 -0.13365439 0
0.037764393 -0.13433579 0
0.032988612 -0.12782733 0
0.037163816 -0.12795666 0
0.035737876 -0.12694934 0
0.036148816 -0.12545668 0
0.036250811 -0.11667409 0
0.03608454 -0.11785987 0
0.035798971 -0.11962757 0
0.033318013 -0.1112442 0
0.0044729342 0.27807653 0
0.0062663155 0.28034455 0
0.0077028098 0.28508264 0
0.0053174947 0.28509346 0
0.098541029 -1.1172466 0
0.099631846 -1.117382 0
0.072012164 -0.74354035 0
0.074234493 -0.73845875 0
0.075774841 -0.73770303 0
0.074157819 -0.73585474 0
0.065379962 -0.60382849 0
0.063666873 -0.59712958 0
0.065841936 -0.59865153 0
0.061485741 -0.5947507 0
0.039837822 -0.23368888 0
0.036494084 -0.22975166 0
0.037019201 -0.22189726 0
0.036612749 -0.21678759 0
0.038362648 -0.21273699 0
0.029749488 -0.11905793 0
0.027486969 -0.11607873 0
0.026911667 -0.10891142 0
0.027321007 -0.099959455 0
0.0022604626 0.28052413 0
-0.001111584 0.28410167 0
0.093926124 -1.1217846 0
0.093412519 -1.1189708 0
0.09548191 -1.1164646 0
0.068660408 -0.74788493 0
0.068281807 -0.7452305 0
0.06771864 -0.73977703 0
0.070865721 -0.7399084 0
0.059573058 -0.59760064 0
0.056191914 -0.59273773 0
0.056214634 -0.58941311 0
0.057425663 -0.58333677 0
0.033216212 -0.24087052 0
0.031041646 -0.23724064 0
0.03463449 -0.23356161 0
0.032398228 -0.22557835 0
0.022605019 -0.10765015 0
0.022299645 -0.099387765 0
-0.0039644442 0.28190041 0
-0.0051593399 0.27860463 0
-0.0020770354 0.28396213 0
-0.0041454351 0.28567189 0
-0.0058761402 0.2832664 0
0.091744497 -1.1215137 0
0.09017051 -1.1242629 0
0.090923622 -1.1202831 0
0.063522339 -0.75113857 0
0.0621383 -0.74445462 0
0.05137011 -0.58191025 0
0.053352606 -0.58502764 0
0.051827103 -0.58544362 0
0.049860694 -0.57495123 0
0.028475948 -0.24513352 0
0.029391838 -0.24235442 0
0.028207986 -0.2377968 0
0.019121237 -0.099187657 0
0.020474926 -0.101587 0
0.017303571 -0.09802793 0
0.015567705 -0.093946598 0
0.019580131 -0.09287522 0
-0.0089109726 0.28062072 0
0.087557152 -1.1196705 0
0.086660795 -1.1193992 0
0.061415534 -0.75271904 0
0.057560802 -0.74991828 0
0.045808952 -0.5849427 0
0.049164198 -0.57821161 0
0.045634035 -0.58202815 0
0.047876723 -0.57427031 0
0.023113994 -0.2545082 0
0.025360212 -0.24507089 0
0.02378015 -0.24696322 0
0.023699252 -0.24425493 0
0.012633959 -0.093439594 0
0.010378489 -0.087101422 0
-0.011494887 0.27529863 0
-0.012529086 0.2761535 0
0.081745267 -1.1221529 0
0.082102172 -1.1246231 0
0.056763224 -0.75633132 0
0.054791871 -0.7552563 0
0.053980101 -0.75531119 0
0.042751744 -0.57431489 0
0.018108459 -0.26846102 0
0.019210773 -0.25792816 0
0.017717531 -0.24889562 0
0.0091997236 -0.087616622 0
0.0079466235 -0.084172525 0
-0.01925334 0.27257147 0
-0.017399345 0.28005329 0
-0.017556511 0.27758211 0
-0.016934838 0.28269386 0
0.077914827 -1.1227798 0
0.077043399 -1.1231257 0
0.077369876 -1.1198972 0
0.073274009 -1.115724 0
0.077286437 -1.1146525 0
0.050982676 -0.75888252 0
0.051014017 -0.75895131 0
0.050405476 -0.76156098 0
0.04767381 -0.75333452 0
0.037861824 -0.57487518 0
0.037981112 -0.57429326 0
0.039134614 -0.57456619 0
0.036684047 -0.5711745 0
0.013117949 -0.27006605 0
0.01738718 -0.27040163 0
0.016391341 -0.26554954 0
0.01646458 -0.25994164 0
0.01278921 -0.25274608 0
0.015761364 -0.2499629 0
0.0030187995 -0.085915051 0
-0.021287855 0.27167606 0
-0.023531172 0.27630037 0
0.068530217 -1.1216664 0
0.070649646 -1.1196918 0
0.045233477 -0.76150244 0
0.04469559 -0.75526083 0
0.031747103 -0.57163161 0
0.029385669 -0.56702942 0
0.010287333 -0.27105069 0
0.0082491348 -0.25913545 0
-0.004308566 -0.080581546 0
-0.0017700357 -0.083322614 0
-0.026409309 0.27331093 0
-0.028381653 0.27452877 0
-0.0288235 0.2802785 0
-0.031109275 0.28218392 0
0.064868614 -1.1243509 0
0.066147476 -1.1248989 0
0.042730462 -0.7695328 0
0.040186845 -0.76171893 0
0.028234527 -0.56563675 0
0.026731187 -0.55953473 0
0.0049420027 -0.27553686 0
0.0055605471 -0.27576506 0
0.006197039 -0.26984221 0
-0.0079388237 -0.083334886 0
-0.010113388 -0.079705015 0
-0.0076618968 -0.077466883 0
-0.034322515 0.28006631 0
0.059668925 -1.1170115 0
0.036247354 -0.7744875 0
0.036075417 -0.76717126 0
0.018894384 -0.56208998 0
0.01958482 -0.55797267 0
-0.0018338826 -0.27112806 0
-0.01151762 -0.078882009 0
-0.013449898 -0.075593568 0
-0.036646143 0.27572376 0
-0.039379701 0.27410439 0
0.05801646 -1.1251216 0
0.057810202 -1.1221383 0
0.057303652 -1.1159655 0
0.053335696 -1.1146035 0
0.02943868 -0.77704066 0
0.030912574 -0.77322823 0
0.016392358 -0.5659045 0
-0.0022806413 -0.27915433 0
-0.0049080327 -0.2826938 0
-0.0023261493 -0.27708608 0
-0.016726039 -0.073681936 0
-0.017226513 -0.068365991 0
-0.020962931 -0.069199219 0
-0.021838522 -0.058842346 0
-0.042423151 0.27485204 0
-0.044926807 0.27920383 0
-0.043102074 0.28140306 0
0.049277849 -1.123031 0
0.050632484 -1.1205075 0
0.025914555 -0.78100711 0
0.024729751 -0.78137243 0
0.027325802 -0.77776414 0
0.012582027 -0.55925643 0
0.010832611 -0.56119913 0
0.01040138 -0.55476964 0
-0.0082875863 -0.28529018 0
-0.0068955389 -0.28369233 0
-0.023025267 -0.068346389 0
-0.02269173 -0.06175895 0
-0.024913311 -0.058025952 0
-0.048945304 0.27898937 0
-0.050568849 0.27887964 0
-0.046856709 0.2831406 0
0.045679886 -1.1209303 0
0.021576608 -0.78038412 0
0.019339349 -0.77661675 0
0.0072229644 -0.55456954 0
0.0032863514 -0.55327636 0
-0.014424539 -0.28326327 0
-0.027802952 -0.071683697 0
-0.027225744 -0.069005229 0
-0.027200473 -0.068217069 0
-0.028044717 -0.05792895 0
-0.053803876 0.27836037 0
-0.054831509 0.28046626 0
0.040122226 -1.1215763 0
0.041052844 -1.1237545 0
0.039788056 -1.1157815 0
0.018435605 -0.78110969 0
0.017620791 -0.78073609 0
0.0016992352 -0.55852771 0
-0.01980423 -0.28725228 0
-0.018384362 -0.28775615 0
-0.036909644 -0.060486279 0
-0.033988032 -0.059279438 0
-0.057821386 0.28236181 0
0.03740529 -1.1183071 0
0.011983335 -0.78824103 0
0.012486207 -0.78160322 0
0.011646128 -0.78201783 0
-0.0028777663 -0.56188345 0
-0.0045817904 -0.55576289 0
-0.006218466 -0.55837464 0
-0.025565578 -0.28815836 0
-0.02508748 -0.28020084 0
-0.037949923 -0.058774453 0
-0.039190382 -0.054936282 0
-0.06327337 0.27768776 0
-0.061627552 0.27830711 0
-0.061839882 0.28214735 0
0.029543219 -1.1216506 0
0.032646809 -1.1199993 0
0.0074638943 -0.78595442 0
-0.010387596 -0.5591023 0
-0.011728158 -0.55420089 0
-0.030443363 -0.29043245 0
-0.045445498 -0.063765496 0
-0.044343177 -0.053232647 0
-0.068905361 0.28100109 0
0.024990993 -1.1263261 0
0.025818938 -1.1241977 0
0.024575431 -1.119931 0
0.0028934316 -0.78735214 0
0.00098780857 -0.78684312 0
-0.013283935 -0.55952096 0
-0.015683966 -0.55455285 0
-0.035696242 -0.28766567 0
-0.033552032 -0.28701091 0
-0.034103047 -0.28327131 0
-0.047605377 -0.064385884 0
-0.049442247 -0.064871266 0
-0.073427223 0.27204096 0
-0.071743041 0.27665752 0
0.01984478 -1.1233715 0
0.018629087 -1.1208531 0
-0.0037562069 -0.78865814 0
-0.003501259 -0.78884125 0
-0.003827292 -0.78925472 0
-0.01777764 -0.55363125 0
-0.019651925 -0.55319095 0
-0.040493123 -0.29264808 0
-0.038336515 -0.29265317 0
-0.038874663 -0.28746554 0
-0.037952702 -0.28554338 0
-0.053961225 -0.059769761 0
-0.054004706 -0.05798715 0
-0.078511268 0.27275014 0
-0.076154716 0.26956466 0
-0.080322854 0.27305293 0
0.014489385 -1.1314951 0
0.016816497 -1.1247661 0
-0.0069682864 -0.78998023 0
-0.0079084653 -0.78933167 0
-0.0072493702 -0.78514558 0
-0.025490064 -0.56067741 0
-0.026536413 -0.55810869 0
-0.023909008 -0.55456918 0
-0.024755161 -0.55412686 0
-0.041364547 -0.29299387 0
-0.044623859 -0.29008549 0
-0.042310797 -0.29148835 0
-0.060882133 -0.059545938 0
-0.059559785 -0.061876539 0
-0.083238408 0.27098918 0
-0.085010685 0.28021204 0
0.010107922 -1.1283824 0
0.010698258 -1.123202 0
0.010929793 -1.1253972 0
0.0083730519 -1.1200854 0
0.011420021 -1.1191535 0
0.0094891405 -1.1194327 0
-0.01324114 -0.79342377 0
-0.011167776 -0.78642327 0
-0.031351503 -0.56052035 0
-0.028930375 -0.55399752 0
-0.028654372 -0.5537594 0
-0.048094038 -0.29656446 0
-0.046384923 -0.28820634 0
-0.062418722 -0.063220873 0
-0.063201271 -0.057286154 0
-0.062975809 -0.058624353 0
-0.063150734 -0.055709805 0
-0.088372976 0.27012199 0
-0.088151693 0.27948648 0
0.0037520842 -1.1237664 0
0.005596003 -1.119922 0
-0.017179852 -0.78677934 0
-0.035289109 -0.56344306 0
-0.036423393 -0.56152499 0
-0.032485802 -0.55860227 0
-0.052141182 -0.29418522 0
-0.055669427 -0.288156 0
-0.06818521 -0.057640158 0
-0.072190575 -0.055352572 0
-0.092309602 0.27141514 0
-0.093625873 0.27288881 0
-0.094465964 0.27247426 0
-0.09135022 0.27241164 0
0.0006302729 -1.1228468 0
-0.00093158055 -1.1273099 0
-0.023976378 -0.79104638 0
-0.020735277 -0.79138398 0
-0.038160171 -0.56307352 0
-0.056172796 -0.2969017 0
-0.056854267 -0.28781426 0
-0.056428615 -0.29127884 0
-0.07344 -0.064719096 0
-0.073765561 -0.062317703 0
-0.09747453 0.27483264 0
-0.099730983 0.27695492 0
-0.0049753478 -1.1283126 0
-0.00222866 -1.1241912 0
-0.027159868 -0.78577346 0
-0.045538079 -0.5593164 0
-0.065456331 -0.29263547 0
-0.064724736 -0.29189178 0
-0.062258709 -0.29119051 0
-0.065956809 -0.28731951 0
-0.081671119 -0.063878544 0
-0.078198478 -0.066411316 0
-0.07962092 -0.063017532 0
-0.081395112 -0.063640416 0
-0.10316204 0.26785931 0
-0.10367465 0.27488911 0
-0.0088684848 -1.1288021 0
-0.0093972702 -1.1238458 0
-0.034203611 -0.78781104 0
-0.03349144 -0.78458506 0
-0.034137402 -0.78626907 0
-0.031704124 -0.78146011 0
-0.049132369 -0.57002622 0
-0.047225296 -0.56350446 0
-0.049056098 -0.56484681 0
-0.048968151 -0.56419611 0
-0.069153443 -0.28454861 0
-0.069661893 -0.28822151 0
-0.084586665 -0.065942317 0
-0.086460933 -0.065502003 0
-0.10926156 0.26896051 0
-0.015418441 -1.1229165 0
-0.03828733 -0.78535157 0
-0.052142393 -0.57469869 0
-0.053702343 -0.56931603 0
-0.056253009 -0.56486112 0
-0.054115362 -0.56545734 0
-0.052052531 -0.56420225 0
-0.074991062 -0.29063416 0
-0.073291689 -0.28815994 0
-0.071673676 -0.28579235 0
-0.091789648 -0.065099701 0
-0.089106597 -0.065763682 0
-0.091256842 -0.066268519 0
-0.088449828 -0.062932976 0
-0.11242454 0.26771879 0
-0.016962087 -1.1299503 0
-0.017984115 -1.1312807 0
-0.018352186 -1.1224095 0
-0.043055899 -0.78997427 0
-0.043671649 -0.78145283 0
-0.060410917 -0.57293248 0
-0.059205957 -0.56599921 0
-0.07816194 -0.28426015 0
-0.078945406 -0.28395531 0
-0.079923004 -0.282381 0
-0.095307656 -0.070630111 0
-0.09553919 -0.068434983 0
-0.092298098 -0.068772607 0
-0.11803296 0.26408902 0
-0.11826351 0.27050003 0
-0.11784203 0.27773815 0
-0.024598688 -1.134632 0
-0.021557786 -1.1328433 0
-0.021770116 -1.129003 0
-0.050705791 -0.78266782 0
-0.051018212 -0.77776438 0
-0.049858641 -0.77889431 0
-0.085232496 -0.28033361 0
-0.097609498 -0.07657098 0
-0.097248621 -0.074546702 0
-0.099526346 -0.06871818 0
-0.030936329 -1.1325867 0
-0.054974034 -0.77811635 0
-0.054408971 -0.77372402 0
-0.068725817 -0.58344525 0
-0.065516055 -0.58371413 0
-0.070423283 -0.57607371 0
-0.070660882 -0.57302165 0
-0.069942139 -0.56854469 0
-0.086764 -0.28908136 0
-0.10588508 -0.078163698 0
-0.10219116 -0.071331963 0
-0.10391579 -0.074594378 0
-0.12805042 0.26602054 0
-0.12954769 0.27126569 0
-0.13040598 0.27342188 0
-0.12984091 0.27781418 0
-0.034923475 -1.1328698 0
-0.032760058 -1.1305701 0
-0.056855377 -0.78103501 0
-0.058929846 -0.77846831 0
-0.073116243 -0.59353733 0
-0.074400194 -0.58791655 0
-0.073872536 -0.58259857 0
-0.07076288 -0.58180422 0
-0.071525253 -0.57000852 0
-0.096035384 -0.286529 0
-0.094435133 -0.27877566 0
-0.1096407 -0.080642037 0
-0.10858729 -0.079851814 0
-0.10725699 -0.073193565 0
-0.1317728 0.27331921 0
-0.03840727 -1.1244074 0
-0.064430892 -0.77839488 0
-0.0640321 -0.77518833 0
-0.064807601 -0.76589465 0
-0.077722691 -0.58697855 0
-0.075948454 -0.58706272 0
-0.076725401 -0.58479983 0
-0.098975219 -0.28516504 0
-0.11427525 -0.089640059 0
-0.11352777 -0.081988417 0
-0.1373218 0.2685729 0
-0.13647465 0.27234641 0
-0.13645546 0.27399153 0
-0.043443657 -1.1361835 0
-0.042676941 -1.1268867 0
-0.068680927 -0.77641428 0
-0.067234799 -0.77156049 0
-0.070870206 -0.76782709 0
-0.070744842 -0.76810211 0
-0.070951112 -0.76511878 0
-0.080613896 -0.59317702 0
-0.08118359 -0.58968157 0
-0.10198379 -0.28280666 0
-0.10346892 -0.27927539 0
-0.10534927 -0.27797812 0
-0.10596904 -0.27324411 0
-0.10452133 -0.27584973 0
-0.11781104 -0.089784741 0
-0.11665563 -0.080211952 0
-0.14331467 0.26986194 0
-0.14558327 0.27369809 0
-0.049487073 -1.1364708 0
-0.050815485 -1.1332833 0
-0.072807163 -0.76724929 0
-0.077018805 -0.76197833 0
-0.086107738 -0.60423476 0
-0.086250871 -0.59857398 0
-0.087636344 -0.59892088 0
-0.089396499 -0.59141183 0
-0.11189013 -0.27337795 0
-0.11064917 -0.27510819 0
-0.11090402 -0.26456249 0
-0.12245399 -0.087975793 0
-0.12083881 -0.08907146 0
-0.14868876 0.26220107 0
-0.14622414 0.26694128 0
-0.14672461 0.27225721 0
-0.054520559 -1.1341853 0
-0.051436175 -1.1341791 0
-0.081840947 -0.76774895 0
-0.079621918 -0.76894557 0
-0.092385046 -0.6034466 0
-0.091173574 -0.60609633 0
-0.091454662 -0.60126168 0
-0.11773349 -0.26130152 0
-0.12888187 -0.088643424 0
-0.15056403 0.2584255 0
-0.057467449 -1.1361803 0
-0.083665684 -0.76994818 0
-0.0870222 -0.75191492 0
-0.085755475 -0.75074905 0
-0.096992515 -0.6119377 0
-0.095105097 -0.60987604 0
-0.09798225 -0.60864955 0
-0.09641128 -0.60547185 0
-0.11999185 -0.269025 0
-0.12286709 -0.25795281 0
-0.12071681 -0.25815496 0
-0.13184172 -0.10833759 0
-0.1332157 -0.098016113 0
-0.1326375 -0.091121756 0
-0.15806535 0.27159646 0
-0.15910052 0.26752844 0
-0.061460666 -1.1356065 0
-0.061955072 -1.1311475 0
-0.087677114 -0.76680362 0
-0.088409118 -0.7592926 0
-0.089361444 -0.75693011 0
-0.093902804 -0.73855513 0
-0.09345188 -0.74123156 0
-0.1002982 -0.62130839 0
-0.10035382 -0.61781186 0
-0.10044079 -0.61424667 0
-0.099004298 -0.60950857 0
-0.12747909 -0.24842916 0
-0.12761053 -0.24729721 0
-0.13754091 -0.1107821 0
-0.13760611 -0.1081082 0
-0.13753946 -0.10375128 0
-0.13496655 -0.10698957 0
-0.13744751 -0.098606206 0
-0.13529722 -0.098808363 0
-0.13915902 -0.099366583 0
-0.13782869 -0.092708349 0
-0.16333233 0.26693833 0
-0.1650691 0.2653898 0
-0.16397829 0.26525435 0
-0.16308767 0.26724523 0
-0.069043882 -1.1239432 0
-0.095090538 -0.75227505 0
-0.095611118 -0.75423408 0
-0.096136868 -0.74970633 0
-0.097125657 -0.74149525 0
-0.098404475 -0.74165434 0
-0.096306317 -0.73597354 0
-0.10585327 -0.62519771 0
-0.10623445 -0.61929989 0
-0.10294382 -0.62227702 0
-0.12906721 -0.25789633 0
-0.13228911 -0.25591359 0
-0.12913597 -0.25690189 0
-0.13106139 -0.24636275 0
-0.1415063 -0.11195661 0
-0.14193849 -0.11045004 0
-0.14163068 -0.10746571 0
-0.14057122 -0.10753243 0
-0.14210895 -0.10093312 0
-0.16825967 0.26730379 0
-0.073672876 -1.1359061 0
-0.075590648 -1.1336832 0
-0.073157363 -1.1288742 0
-0.10129574 -0.74714577 0
-0.10314284 -0.73607159 0
-0.10315499 -0.73435766 0
-0.11234663 -0.61859274 0
-0.11074433 -0.61548376 0
-0.10846564 -0.61638939 0
-0.13795036 -0.25788286 0
-0.13437572 -0.25163305 0
-0.14744963 -0.1133071 0
-0.14674447 -0.11414705 0
-0.14390825 -0.11683429 0
-0.17416558 0.26502761 0
-0.17493689 0.26361859 0
-0.17221548 0.26695183 0
-0.077509388 -1.1356761 0
-0.10538009 -0.73230416 0
-0.10777128 -0.73532814 0
-0.10911044 -0.73399431 0
-0.10579452 -0.73618329 0
-0.11717486 -0.62350637 0
-0.11645308 -0.61945784 0
-0.11422189 -0.62236834 0
-0.11382863 -0.62079132 0
-0.13987118 -0.25452447 0
-0.14151603 -0.25092795 0
-0.14177841 -0.24655613 0
-0.14850493 -0.12394308 0
-0.15220395 -0.12570199 0
-0.17812745 0.26553255 0
-0.1787947 0.26755485 0
-0.17810218 0.26632077 0
-0.11193196 -0.73626429 0
-0.11141039 -0.73008943 0
-0.11317242 -0.73242611 0
-0.12135802 -0.63236594 0
-0.12081117 -0.62540281 0
-0.1477657 -0.24823195 0
-0.14570895 -0.24611992 0
-0.15769444 -0.11988312 0
-0.15452564 -0.12090579 0
-0.15689783 -0.11768595 0
-0.18572474 0.26977101 0
-0.18261509 0.2705653 0
-0.18534864 0.26894596 0
-0.18251401 0.273718 0
-0.086168058 -1.1412168 0
-0.090667821 -1.1344702 0
-0.086217612 -1.1385772 0
-0.089460313 -1.1307803 0
-0.117197 -0.73178369 0
-0.11916529 -0.7311371 0
-0.15111829 -0.25196674 0
-0.15185297 -0.24745195 0
-0.15160829 -0.24714507 0
-0.1528801 -0.24323812 0
-0.16136917 -0.12506975 0
-0.16159463 -0.12373153 0
-0.16202283 -0.11773056 0
-0.15972543 -0.11909903 0
-0.18922964 0.26674265 0
-0.09408576 -1.1410638 0
-0.092704885 -1.1328292 0
-0.12028745 -0.73093289 0
-0.12451829 -0.72730708 0
-0.12911583 -0.64747524 0
-0.1300976 -0.63519824 0
-0.12737617 -0.63186502 0
-0.15571474 -0.24801017 0
-0.16718712 -0.12669525 0
-0.19447039 0.26779562 0
-0.19318545 0.26639068 0
-0.19473673 0.26767299 0
-0.097282395 -1.1382929 0
-0.10124236 -1.1279421 0
-0.12937079 -0.72879303 0
-0.12594073 -0.72391331 0
-0.12592153 -0.72226822 0
-0.13569714 -0.64152092 0
-0.13497537 -0.63747233 0
-0.13395937 -0.63575649 0
-0.16065775 -0.24761039 0
-0.16030855 -0.24105731 0
-0.17122482 -0.12855479 0
-0.17021489 -0.12598197 0
-0.16950627 -0.12443545 0
-0.16868439 -0.1214501 0
-0.19824421 0.26788804 0
-0.10253526 -1.1355261 0
-0.13238037 -0.73065054 0
-0.13527988 -0.71615064 0
-0.13477142 -0.71247774 0
-0.1380951 -0.64190418 0
-0.16685775 -0.24202122 0
-0.16766724 -0.23565507 0
-0.16817121 -0.23272559 0
-0.16656329 -0.2332885 0
-0.17668687 -0.13686633 0
-0.17643982 -0.12460571 0
-0.20181884 0.26163822 0
-0.20199376 0.2645528 0
-0.20449388 0.27058405 0
-0.10981516 -1.1274807 0
-0.13800229 -0.72369969 0
-0.13786797 -0.71077001 0
-0.13761725 -0.71132004 0
-0.13706429 -0.7052139 0
-0.14250842 -0.68711603 0
-0.14303926 -0.67751539 0
-0.14429602 -0.66126066 0
-0.1432842 -0.6488421 0
-0.14256643 -0.64928794 0
-0.14152116 -0.64228946 0
-0.17290093 -0.23124315 0
-0.17201032 -0.22925223 0
-0.17088816 -0.22945645 0
-0.17335694 -0.22349393 0
-0.17923209 -0.16787842 0
-0.17769501 -0.16209553 0
-0.17972215 -0.14232694 0
-0.17936799 -0.12706357 0
-0.20897128 0.26405719 0
-0.11213221 -1.1305723 0
-0.14256938 -0.70892787 0
-0.14323406 -0.70991331 0
-0.14583476 -0.70516253 0
-0.14502965 -0.69257557 0
-0.14738013 -0.69024706 0
-0.14642479 -0.68867928 0
-0.14617513 -0.68402076 0
-0.14547957 -0.68568331 0
-0.14434338 -0.67775559 0
-0.14813034 -0.68016517 0
-0.14402996 -0.67844313 0
-0.1472266 -0.67567223 0
-0.14437981 -0.67261404 0
-0.14925568 -0.6650424 0
-0.14569417 -0.66200161 0
-0.1464898 -0.65927589 0
-0.14626433 -0.66061413 0
-0.14709038 -0.65289676 0
-0.14693366 -0.65324056 0
-0.1485081 -0.64726371 0
-0.14881961 -0.64827144 0
-0.1776834 -0.22715968 0
-0.17602879 -0.22946669 0
-0.1804755 -0.22368014 0
-0.17731276 -0.2238459 0
-0.17886616 -0.21721223 0
-0.18169132 -0.20667163 0
-0.1804691 -0.20793901 0
-0.18321894 -0.19714183 0
-0.18403791 -0.18606555 0
-0.17966668 -0.17761855 0
-0.18524513 -0.17245035 0
-0.18290076 -0.17392196 0
-0.18389656 -0.16930555 0
-0.1826289 -0.16298114 0
-0.18327296 -0.1548194 0
-0.18177378 -0.15021878 0
-0.18288282 -0.14751254 0
-0.18551628 -0.15019509 0
-0.18338937 -0.14133967 0
-0.18343893 -0.13870013 0
-0.18284857 -0.13351965 0
-0.21446019 0.26241675 0
-0.21612372 0.26647612 0
-0.12130957 -1.1282262 0
-0.12165334 -1.1232539 0
-0.15064234 -0.70140028 0
-0.15140758 -0.70366621 0
-0.15190805 -0.69835025 0
-0.1501492 -0.68109494 0
-0.1517961 -0.6721471 0
-0.15281112 -0.6696471 0
-0.18410031 -0.21490826 0
-0.18535708 -0.19865353 0
-0.18501233 -0.19940981 0
-0.18731226 -0.19550493 0
-0.18708491 -0.18699735 0
-0.18475969 -0.1901141 0
-0.18535018 -0.18080446 0
-0.18666659 -0.16484068 0
-0.18926683 -0.15774624 0
-0.12529962 -1.1425711 0
-0.12448382 -1.1387287 0
-0.12601849 -1.1325579 0
-0.12642495 -1.1274482 0
-0.12444353 -1.1255928 0
-0.15279163 -0.6969822 0
-0.18865064 -0.209738 0
-0.18912375 -0.20898522 0
-0.18838488 -0.19794025 0
-0.18918465 -0.18521886 0
-0.22273928 0.25843757 0
-0.22142717 0.26766658 0
-0.12837794 -1.1434342 0
-0.12787457 -1.1346884 0
-0.1271528 -1.1306399 0
-0.226036 0.26227167 0
-0.22873214 0.25972661 0
-0.2291386 0.26483631 0
-0.1350542 -1.1429033 0
-0.13544852 -1.1395075 0
-0.23101994 0.26191765 0
-0.1396611 -1.1384525 0
-0.2390195 0.26056308 0
-0.23607869 0.26341501 0
-0.14552096 -1.1457548 0
-0.14508286 -1.1336281 0
-0.14291084 -1.1347216 0
-0.24145088 0.26559991 0
-0.24680579 0.25958416 0
-0.2489116 0.26221961 0
-0.24728706 0.26654521 0
-0.15487583 -1.1372507 0
-0.25175232 0.25830448 0
-0.15843733 -1.1409985 0
-0.15903184 -1.1354762 0
-0.25635925 0.2627553 0
-0.25611457 0.26306221 0
-0.16236885 -1.1447781 0
-0.16245581 -1.1412129 0
-0.16600935 -1.1359719 0
-0.26211515 0.2577104 0
-0.26425806 0.26314813 0
-0.26197952 0.26153982 0
-0.16926448 -1.1437662 0
-0.26851672 0.2533294 0
-0.26883522 0.25908974 0
-0.17167763 -1.1413001 0
-0.17310101 -1.1435362 0
-0.27419269 0.25631735 0
-0.17597306 -1.1473826 0
-0.17837965 -1.1436654 0
-0.27995053 0.25779778 0
-0.27771059 0.25655535 0
-0.2805137 0.26325122 0
-0.1837846 -1.1491497 0
-0.18528792 -1.1430476 0
-0.18550633 -1.1383505 0
-0.2839185 0.25915968 0
-0.28217465 0.2640672 0
-0.18667486 -1.1504252 0
-0.18718141 -1.1442524 0
-0.18904167 -1.1356801 0
-0.29041183 0.26576468 0
-0.19244644 -1.1397717 0
-0.19237579 -1.1309204 0
-0.19346561 -1.126569 0
-0.29491451 0.25844961 0
-0.19739297 -1.1410514 0
-0.29992372 0.25730744 0
-0.29680797 0.25724483 0
-0.29910183 0.2602928 0
-0.2040299 -1.1316006 0
-0.30247021 0.25105968 0
-0.30078906 0.25610471 0
-0.2114705 -1.1277059 0
-0.20714563 -1.131538 0
-0.20961745 -1.125147 0
-0.30872598 0.25461259 0
-0.31274447 0.25439817 0
-0.3122603 0.26149875 0
-0.31120691 0.26228899 0
-0.21881706 -1.1240175 0
-0.22235745 -1.1162745 0
-0.31770921 0.25568926 0
-0.22516026 -1.1190072 0
-0.22733533 -1.1174854 0
-0.3216089 0.25394878 0
-0.32209945 0.25666255 0
-0.23109096 -1.1199638 0
-0.329427 0.2509307 0
-0.32640737 0.25642565 0
-0.23279321 -1.1364996 0
-0.23346254 -1.1291261 0
-0.23389427 -1.1248045 0
-0.23344333 -1.127481 0
-0.2331472 -1.1199678 0
-0.33052388 0.25192305 0
-0.33203331 0.25888205 0
-0.23884659 -1.1542075 0
-0.239237 -1.1325341 0
-0.2392178 -1.1308891 0
-0.33892289 0.25903711 0
-0.24279949 -1.1404978 0
-0.24433416 -1.1343269 0
-0.34458509 0.25285199 0
-0.34210834 0.2558783 0
-0.34684154 0.25497428 0
-0.25183329 -1.1409975 0
-0.35274747 0.25269809 0
-0.35349351 0.25207725 0
-0.35103497 0.25767437 0
-0.25636917 -1.1580895 0
-0.25795949 -1.1484222 0
-0.35986248 0.25419137 0
-0.35788712 0.25690374 0
-0.35707131 0.26074603 0
-0.26470038 -1.1561857 0
-0.26097611 -1.1536387 0
-0.29625538 -0.71324474 0
-0.29888722 -0.67710131 0
-0.36080265 0.25483996 0
-0.26824078 -1.1484427 0
-0.29886454 -0.71935499 0
-0.30066401 -0.72076601 0
-0.30022332 -0.71188283 0
-0.30056104 -0.70776755 0
-0.29773951 -0.70549756 0
-0.30184495 -0.70214677 0
-0.30250216 -0.69648707 0
-0.30231473 -0.68451744 0
-0.30085552 -0.67645472 0
-0.33658868 -0.18737757 0
-0.3660242 0.25753802 0
-0.36939675 0.2590076 0
-0.27348346 -1.1572355 0
-0.30508578 -0.73078936 0
-0.30551651 -0.72225195 0
-0.3037484 -0.72077215 0
-0.30445877 -0.7003693 0
-0.30563608 -0.69385368 0
-0.30459315 -0.69304055 0
-0.30803004 -0.68974251 0
-0.30483246 -0.68829751 0
-0.30749118 -0.69176829 0
-0.30406716 -0.68603158 0
-0.30665573 -0.68346596 0
-0.3087166 -0.67558229 0
-0.30800092 -0.67067683 0
-0.30700222 -0.66076028 0
-0.31053045 -0.65473104 0
-0.31062958 -0.64945197 0
-0.31102389 -0.64605612 0
-0.34025973 -0.20537484 0
-0.34255967 -0.20146994 0
-0.34019125 -0.17738906 0
-0.37295216 0.25440291 0
-0.27794579 -1.1514146 0
-0.30450124 -0.75373214 0
-0.30527863 -0.7542842 0
-0.30470043 -0.74738991 0
-0.30735916 -0.75086069 0
-0.30896258 -0.74369538 0
-0.30886856 -0.74390167 0
-0.30870691 -0.73482805 0
-0.30968753 -0.7328254 0
-0.30594409 -0.72863317 0
-0.30807513 -0.72678584 0
-0.30875215 -0.71109617 0
-0.3091794 -0.70017225 0
-0.31087297 -0.67452317 0
-0.31278467 -0.67315722 0
-0.31138557 -0.6674934 0
-0.31275141 -0.66338021 0
-0.34268793 -0.21525657 0
-0.34405276 -0.20692749 0
-0.34709078 -0.19465458 0
-0.34488806 -0.18343465 0
-0.34523788 -0.17760555 0
-0.37767324 0.25178501 0
-0.37867612 0.25257114 0
-0.284805 -1.1555442 0
-0.28332406 -1.1483728 0
-0.30885631 -0.76010561 0
-0.30928499 -0.75621259 0
-0.31275561 -0.74524802 0
-0.31049728 -0.73752457 0
-0.31356853 -0.73502868 0
-0.31837586 -0.65389299 0
-0.3210474 -0.64326769 0
-0.31937331 -0.64158159 0
-0.32032561 -0.63921916 0
-0.34821808 -0.23495585 0
-0.34996861 -0.22662427 0
-0.34953591 -0.22672987 0
-0.35033059 -0.2190813 0
-0.34765875 -0.21310854 0
-0.35000923 -0.21077999 0
-0.35063598 -0.21081892 0
-0.35138717 -0.20495294 0
-0.3513245 -0.20509045 0
-0.34803993 -0.2072107 0
-0.35019049 -0.1780283 0
-0.35106751 -0.17470227 0
-0.35480955 -0.17186362 0
-0.35134861 -0.16986759 0
-0.3550967 -0.16617203 0
-0.35245764 -0.16716135 0
-0.35547182 -0.1611311 0
-0.38329709 0.24889006 0
-0.38215479 0.25596082 0
-0.31470412 -0.75463152 0
-0.32063171 -0.66415286 0
-0.32603136 -0.64362168 0
-0.32407326 -0.63270861 0
-0.32397923 -0.6329149 0
-0.32360667 -0.63541943 0
-0.32317659 -0.63157469 0
-0.32558268 -0.62574965 0
-0.35258964 -0.26000085 0
-0.35248956 -0.26106405 0
-0.35394236 -0.25338566 0
-0.35191038 -0.24995385 0
-0.35355526 -0.24565032 0
-0.35151127 -0.22944227 0
-0.35184896 -0.22532701 0
-0.35876173 -0.1650034 0
-0.35982803 -0.1572303 0
-0.35684979 -0.15530404 0
-0.36054274 -0.15791988 0
-0.38913837 0.25632215 0
-0.38980356 0.25299302 0
-0.29294819 -1.154053 0
-0.29102942 -1.15206 0
-0.31968293 -0.76076531 0
-0.33050394 -0.62624115 0
-0.33150679 -0.62545502 0
-0.33324775 -0.61630088 0
-0.3559289 -0.25016829 0
-0.35592091 -0.24117945 0
-0.35731709 -0.23278162 0
-0.36503035 -0.15288714 0
-0.36305502 -0.15017477 0
-0.36428332 -0.14805043 0
-0.39152819 0.2497306 0
-0.39132801 0.24760424 0
-0.30034429 -1.1477251 0
-0.32453901 -0.76393074 0
-0.32374239 -0.76173359 0
-0.33610958 -0.63170689 0
-0.33431935 -0.61452031 0
-0.33504722 -0.61771196 0
-0.36067015 -0.25864717 0
-0.36307815 -0.26266789 0
-0.36267588 -0.25707489 0
-0.36869007 -0.14572597 0
-0.36888322 -0.14024062 0
-0.37223047 -0.13798289 0
-0.36954388 -0.13696742 0
-0.3964504 0.24455191 0
-0.30044726 -1.1607236 0
-0.30228832 -1.1505063 0
-0.33156386 -0.78092128 0
-0.33107266 -0.77046174 0
-0.33121017 -0.76847285 0
-0.33865315 -0.62389302 0
-0.33829626 -0.62636316 0
-0.36675286 -0.26785454 0
-0.36836943 -0.26319131 0
-0.37361449 -0.13129891 0
-0.37625405 -0.13312453 0
-0.40008676 0.24312678 0
-0.30958721 -1.1593031 0
-0.31038699 -1.1465818 0
-0.33624145 -0.78532183 0
-0.33239689 -0.77797693 0
-0.33582506 -0.77301085 0
-0.34433073 -0.6134457 0
-0.34809053 -0.60522139 0
-0.37193987 -0.2801438 0
-0.36858466 -0.2734127 0
-0.38134515 -0.1357743 0
-0.3817324 -0.12901953 0
-0.38019481 -0.1211287 0
-0.40750206 0.24780962 0
-0.40767699 0.2507242 0
-0.40879211 0.25428736 0
-0.31340265 -1.1475823 0
-0.34065616 -0.79198617 0
-0.33710584 -0.78230864 0
-0.34825811 -0.62792808 0
-0.3521696 -0.61064965 0
-0.35021743 -0.61407679 0
-0.35115573 -0.60358244 0
-0.3517684 -0.59548944 0
-0.35044003 -0.59867692 0
-0.37652344 -0.28475055 0
-0.37286186 -0.28206596 0
-0.38584492 -0.12902771 0
-0.38672242 -0.12851658 0
-0.38786694 -0.11503891 0
-0.38809848 -0.11284377 0
-0.38911346 -0.11034379 0
-0.41140735 0.24903402 0
-0.41266701 0.25122711 0
-0.41375077 0.25472152 0
-0.31914577 -1.1510592 0
-0.34497398 -0.78479517 0
-0.35718504 -0.59644479 0
-0.37920845 -0.29322535 0
-0.3775647 -0.28725463 0
-0.391195 -0.11113606 0
-0.39435422 -0.10929084 0
-0.41910058 0.24363296 0
-0.41768837 0.25179881 0
-0.32444918 -1.1498686 0
-0.32152757 -1.1486619 0
-0.35005194 -0.78494287 0
-0.36268255 -0.59469187 0
-0.38272038 -0.29961267 0
-0.3856228 -0.2991744 0
-0.3840448 -0.29263774 0
-0.38378304 -0.28462738 0
-0.39509708 -0.12483024 0
-0.39728796 -0.10878383 0
-0.39832824 -0.10707201 0
-0.42435345 0.24639975 0
-0.42092946 0.25213644 0
-0.4206413 0.25066069 0
-0.42095983 0.25642106 0
-0.32986677 -1.1557469 0
-0.32833627 -1.1512151 0
-0.35268641 -0.79184133 0
-0.36889771 -0.60698318 0
-0.36681616 -0.60619092 0
-0.36909789 -0.60485685 0
-0.36516637 -0.60107714 0
-0.39024478 -0.30707136 0
-0.38753548 -0.30202428 0
-0.40444648 -0.10550795 0
-0.4021194 -0.098778903 0
-0.42770073 0.24865751 0
-0.33394188 -1.1566808 0
-0.33166015 -1.1580149 0
-0.35970134 -0.79141122 0
-0.37120372 -0.60222137 0
-0.39259157 -0.31755346 0
-0.39145678 -0.31736356 0
-0.39335635 -0.31771144 0
-0.39326343 -0.30764344 0
-0.39383763 -0.3107504 0
-0.39159745 -0.30045611 0
-0.39491847 -0.29319432 0
-0.40759516 -0.097917296 0
-0.40606207 -0.096628822 0
-0.43246526 0.24782221 0
-0.33919477 -1.153914 0
-0.36343873 -0.79646039 0
-0.36445981 -0.79310346 0
-0.37683362 -0.60425937 0
-0.37945303 -0.59881008 0
-0.41372395 -0.10209866 0
-0.43855923 0.24595858 0
-0.43721768 0.2452731 0
-0.34414274 -1.1622245 0
-0.34354681 -1.1607158 0
-0.34093156 -1.1554625 0
-0.3686814 -0.80525315 0
-0.36654842 -0.79725468 0
-0.38360298 -0.59789252 0
-0.38334617 -0.59929949 0
-0.38490003 -0.59477377 0
-0.38476861 -0.59590572 0
-0.40054011 -0.31522372 0
-0.40211639 -0.29742453 0
-0.41582468 -0.10453603 0
-0.41773638 -0.10317003 0
-0.41703328 -0.098658651 0
-0.44371393 0.23781644 0
-0.44144246 0.24804196 0
-0.44097042 0.25685641 0
-0.34639069 -1.1497124 0
-0.3733094 -0.81229323 0
-0.37414551 -0.80821335 0
-0.37254319 -0.80581141 0
-0.37388372 -0.80091 0
-0.38756487 -0.59738761 0
-0.40859532 -0.31308183 0
-0.42095122 -0.097828351 0
-0.42384756 -0.098247014 0
-0.4236255 -0.095260672 0
-0.42358276 -0.090665147 0
-0.44682968 0.23787905 0
-0.37887156 -0.81954151 0
-0.37672731 -0.81888676 0
-0.37629977 -0.8125056 0
-0.39453632 -0.5987401 0
-0.39377108 -0.59647417 0
-0.45191368 0.23858826 0
-0.45026389 0.24370202 0
-0.35562047 -1.1587884 0
-0.38323829 -0.82138622 0
-0.39566454 -0.59767896 0
-0.39964464 -0.59460318 0
-0.39729324 -0.59130186 0
-0.39713651 -0.59164566 0
-0.41846919 -0.31399611 0
-0.41599241 -0.3109698 0
-0.43414807 -0.099912569 0
-0.43333393 -0.094379351 0
-0.43264794 -0.091096073 0
-0.45544803 0.24547441 0
-0.4573102 0.24420087 0
-0.36267993 -1.1607916 0
-0.36186409 -1.1569493 0
-0.3879458 -0.81868714 0
-0.38925096 -0.81006706 0
-0.40254804 -0.5983808 0
-0.40286756 -0.59683633 0
-0.40208912 -0.59206837 0
-0.42362297 -0.31650838 0
-0.43786943 -0.088398017 0
-0.46015695 0.24114266 0
-0.46289492 0.23868929 0
-0.4602257 0.24213712 0
-0.46014383 0.24364468 0
-0.46098807 0.2539328 0
-0.37002039 -1.1579602 0
-0.36651638 -1.1605617 0
-0.40859753 -0.59781116 0
-0.4055849 -0.59638214 0
-0.42816913 -0.3220408 0
-0.44513094 -0.098120593 0
-0.44301203 -0.09825401 0
-0.46743473 0.24383663 0
-0.46814948 0.24314703 0
-0.36991611 -1.169726 0
-0.37238494 -1.1637635 0
-0.37268522 -1.160574 0
-0.39584833 -0.82067639 0
-0.40011653 -0.81612492 0
-0.39923197 -0.81327713 0
-0.39834744 -0.81042928 0
-0.41298506 -0.59384167 0
-0.41221374 -0.59243262 0
-0.41460803 -0.5901981 0
-0.41464552 -0.59021074 0
-0.43297207 -0.3261663 0
-0.43092191 -0.32530528 0
-0.4328275 -0.3247962 0
-0.4302941 -0.32105047 0
-0.43564004 -0.31386152 0
-0.4486894 -0.10229685 0
-0.44745618 -0.095003881 0
-0.44914943 -0.09833505 0
-0.44913024 -0.096689939 0
-0.45076689 -0.099301681 0
-0.47477713 0.23682234 0
-0.47365919 0.24732083 0
-0.37680382 -1.1597252 0
-0.37767524 -1.160071 0
-0.40448168 -0.82542884 0
-0.40169156 -0.82309008 0
-0.4177314 -0.59724772 0
-0.44008705 -0.32467303 0
-0.45174551 -0.10194328 0
-0.47958615 0.2335538 0
-0.47782415 0.23589051 0
-0.3824155 -1.1643339 0
-0.3829281 -1.1573042 0
-0.40901279 -0.81861353 0
-0.42216244 -0.59149551 0
-0.45906776 -0.10168257 0
-0.4837639 0.23621948 0
-0.38842466 -1.1506284 0
-0.41299036 -0.81807411 0
-0.42783073 -0.59682375 0
-0.42976159 -0.59710282 0
-0.42694619 -0.5939759 0
-0.42579877 -0.59339195 0
-0.44637421 -0.32105133 0
-0.46174473 -0.10258252 0
-0.46536699 -0.096347034 0
-0.48776674 0.23597069 0
-0.4871825 0.24200808 0
-0.48965123 0.2479706 0
-0.39445788 -1.1624753 0
-0.41619053 -0.81698275 0
-0.41738045 -0.8115682 0
-0.41584995 -0.80703634 0
-0.43354249 -0.60036939 0
-0.43401769 -0.59426528 0
-0.4510169 -0.32384109 0
-0.45371464 -0.31821987 0
-0.46887287 -0.10359128 0
-0.49104428 0.24144989 0
-0.4935444 0.24748114 0
-0.4231973 -0.82276094 0
-0.42314276 -0.81669015 0
-0.43808258 -0.60675871 0
-0.436317 -0.60274255 0
-0.43498507 -0.60425055 0
-0.45943254 -0.32090855 0
-0.45650387 -0.31634277 0
-0.45620358 -0.31953233 0
-0.47205737 -0.10253423 0
-0.47434413 -0.096127316 0
-0.49879727 0.25024796 0
-0.4031347 -1.1654452 0
-0.42908004 -0.81889755 0
-0.46020994 -0.32146063 0
-0.47806236 -0.099531345 0
-0.50228393 0.24464881 0
-0.40682256 -1.1731339 0
-0.4091852 -1.1690915 0
-0.40743527 -1.1650409 0
-0.43379503 -0.82237238 0
-0.43428239 -0.81455439 0
-0.44769567 -0.60458553 0
-0.46672249 -0.31650072 0
-0.46921846 -0.32117215 0
-0.48327979 -0.10753597 0
-0.48527145 -0.097831793 0
-0.48213395 -0.098785721 0
-0.50909972 0.23873664 0
-0.5095436 0.24477197 0
-0.5069344 0.25088227 0
-0.43819472 -0.81668895 0
-0.43756694 -0.81243414 0
-0.45349333 -0.61413318 0
-0.45161802 -0.61035758 0
-0.47153148 -0.31976929 0
-0.47447133 -0.31840533 0
-0.4862954 -0.10853653 0
-0.48791802 -0.10301637 0
-0.48613071 -0.099891469 0
-0.48802418 -0.10109627 0
-0.51099926 0.23838878 0
-0.41771245 -1.175764 0
-0.41633764 -1.1666725 0
-0.41901115 -1.1651859 0
-0.44448179 -0.81306726 0
-0.44232196 -0.81244689 0
-0.45444661 -0.61598659 0
-0.47544989 -0.32104692 0
-0.47966152 -0.31577605 0
-0.49473277 -0.10471267 0
-0.49209222 -0.098671176 0
-0.51773918 0.23484109 0
-0.51955593 0.24163072 0
-0.51917982 0.24080567 0
-0.42313927 -1.1658667 0
-0.44851294 -0.81367576 0
-0.46334001 -0.60441351 0
-0.48267719 -0.3167766 0
-0.49847323 -0.10933334 0
-0.49780455 -0.10432474 0
-0.52339244 0.24186066 0
-0.52362907 0.24912862 0
-0.42856517 -1.1503396 0
-0.45122331 -0.80915564 0
-0.46617657 -0.61903131 0
-0.46591783 -0.61059248 0
-0.48776123 -0.31606743 0
-0.48777336 -0.31435359 0
-0.50305372 -0.11436856 0
-0.500866 -0.1154964 0
-0.50114101 -0.11151867 0
-0.52818835 0.24109414 0
-0.52795678 0.23889899 0
-0.43579531 -1.160131 0
-0.43335247 -1.1544994 0
-0.45668691 -0.81000787 0
-0.45859864 -0.80864191 0
-0.45746848 -0.79985726 0
-0.47161332 -0.62655467 0
-0.47106043 -0.62044853 0
-0.49328095 -0.31553113 0
-0.49594784 -0.31279358 0
-0.49346405 -0.30640832 0
-0.50740576 -0.12117044 0
-0.50584692 -0.11627886 0
-0.5349353 0.23418751 0
-0.53280389 0.23374556 0
-0.5300383 0.23810674 0
-0.4396328 -1.1641169 0
-0.46589562 -0.80759305 0
-0.46172047 -0.80772233 0
-0.49710038 -0.30830476 0
-0.51104915 -0.12642582 0
-0.53669739 0.23185077 0
-0.53767699 0.23877645 0
-0.44178501 -1.1737604 0
-0.4446471 -1.1601862 0
-0.46832046 -0.80130523 0
-0.47098991 -0.79532427 0
-0.48097268 -0.62465298 0
-0.50220507 -0.31627148 0
-0.50410312 -0.30958852 0
-0.54219997 0.23938352 0
-0.44933173 -1.1679457 0
-0.44817638 -1.1583729 0
-0.44586334 -1.1597757 0
-0.47330391 -0.79955125 0
-0.47514492 -0.78933394 0
-0.4870311 -0.63728803 0
-0.48319972 -0.63244522 0
-0.48546481 -0.62622261 0
-0.48766202 -0.62662429 0
-0.51037806 -0.3076807 0
-0.5083279 -0.30681968 0
-0.50701582 -0.29759064 0
-0.51998895 -0.12713178 0
-0.52069569 -0.11883254 0
-0.54801184 0.23690109 0
-0.54560292 0.24513771 0
-0.54829901 0.24259269 0
-0.4540154 -1.1714892 0
-0.45238659 -1.1566696 0
-0.47774807 -0.79630113 0
-0.47858205 -0.79757261 0
-0.49150947 -0.64803082 0
-0.48968378 -0.64161575 0
-0.48806533 -0.63643318 0
-0.4877772 -0.63790888 0
-0.49111736 -0.63229221 0
-0.51392293 -0.30653995 0
-0.51180661 -0.30342996 0
-0.52554309 -0.12539127 0
-0.52774996 -0.12661554 0
-0.52517307 -0.1253594 0
-0.52493542 -0.12841147 0
-0.54988009 0.23648447 0
-0.45761144 -1.1602497 0
-0.45655009 -1.1504706 0
-0.48538175 -0.78692114 0
-0.48306265 -0.78918093 0
-0.4860076 -0.78133017 0
-0.49243656 -0.64488018 0
-0.49301186 -0.6377129 0
-0.51659036 -0.30591035 0
-0.51969296 -0.30334571 0
-0.53161681 -0.12139395 0
-0.55795753 0.2374097 0
-0.55517042 0.24017698 0
-0.46331525 -1.1548065 0
-0.48947507 -0.78528422 0
-0.48949936 -0.78185648 0
-0.49248686 -0.76800722 0
-0.49921387 -0.64750212 0
-0.49846682 -0.64266545 0
-0.52167439 -0.30520117 0
-0.52315038 -0.30366227 0
-0.52619851 -0.29502687 0
-0.53699994 -0.14225952 0
-0.53493565 -0.13326658 0
-0.53582883 -0.13272111 0
-0.53409463 -0.12863614 0
-0.56280088 0.23463841 0
-0.46798387 -1.1460023 0
-0.47154957 -1.1390474 0
-0.49379995 -0.78145212 0
-0.49619994 -0.77648407 0
-0.49648103 -0.77164942 0
-0.49633041 -0.77113622 0
-0.49414083 -0.76241833 0
-0.50395799 -0.67004269 0
-0.50400048 -0.6640442 0
-0.50478208 -0.65389353 0
-0.50572228 -0.65324497 0
-0.50524509 -0.64950329 0
-0.52987063 -0.30274987 0
-0.52918273 -0.29609618 0
-0.53074872 -0.28985661 0
-0.5286209 -0.27678531 0
-0.54141265 -0.13907814 0
-0.53916234 -0.14034349 0
-0.53864074 -0.13416858 0
-0.56811345 0.23711422 0
-0.56788492 0.23534757 0
-0.56859165 0.24364682 0
-0.56968153 0.24799818 0
-0.47407076 -1.1445069 0
-0.47617659 -1.1418716 0
-0.50135887 -0.77392358 0
-0.49887404 -0.76332235 0
-0.50300288 -0.75091404 0
-0.51034421 -0.66114193 0
-0.50843149 -0.658292 0
-0.5091514 -0.65249479 0
-0.53780431 -0.27358228 0
-0.53653568 -0.26257065 0
-0.54609925 -0.15668336 0
-0.54531485 -0.15277231 0
-0.54456776 -0.1479356 0
-0.54335672 -0.14185928 0
-0.54460323 -0.13716416 0
-0.57158655 0.23683205 0
-0.47752661 -1.1522828 0
-0.48094213 -1.1469227 0
-0.4770672 -1.1438625 0
-0.50607795 -0.76669568 0
-0.5046466 -0.75688475 0
-0.508093 -0.74934793 0
-0.50972778 -0.74211389 0
-0.50996149 -0.72078431 0
-0.51019937 -0.68875206 0
-0.51061189 -0.68278545 0
-0.51315653 -0.67918742 0
-0.51310599 -0.67761105 0
-0.51411301 -0.66612226 0
-0.53987658 -0.29015005 0
-0.538607 -0.27492252 0
-0.54755491 -0.16306658 0
-0.54993677 -0.16066928 0
-0.546821 -0.1607319 0
-0.55041099 -0.15034927 0
-0.54960686 -0.1419782 0
-0.57645279 0.24451925 0
-0.48272237 -1.1466886 0
-0.48591295 -1.1447747 0
-0.51028067 -0.74822003 0
-0.51212364 -0.74784851 0
-0.51419806 -0.74528182 0
-0.51306188 -0.73735416 0
-0.5117203 -0.73803967 0
-0.51361799 -0.72854173 0
-0.51340175 -0.71410441 0
-0.51539248 -0.7001844 0
-0.51720923 -0.69339478 0
-0.51763743 -0.68739378 0
-0.51441199 -0.68769705 0
-0.51587886 -0.68744349 0
-0.51842153 -0.67470676 0
-0.54331589 -0.27925426 0
-0.54590398 -0.27387366 0
-0.5478096 -0.2733646 0
-0.54634178 -0.26869524 0
-0.54723495 -0.26814973 0
-0.54558867 -0.26471543 0
-0.54699236 -0.26249149 0
-0.54587579 -0.25902385 0
-0.54500341 -0.25446215 0
-0.54781598 -0.24352746 0
-0.55099756 -0.22840877 0
-0.55130392 -0.22436227 0
-0.55270141 -0.19120009 0
-0.55213082 -0.17598955 0
-0.55391973 -0.17165518 0
-0.55570519 -0.16493431 0
-0.5839842 0.23370162 0
-0.486754 -1.1494051 0
-0.48669741 -1.1486857 0
-0.49112236 -1.1437905 0
-0.48793784 -1.1448475 0
-0.51934898 -0.73373246 0
-0.51671451 -0.726834 0
-0.51769209 -0.72525972 0
-0.51822388 -0.71987504 0
-0.51738286 -0.71524453 0
-0.52012765 -0.70952016 0
-0.52141553 -0.70839381 0
-0.52024597 -0.70588624 0
-0.52074289 -0.69889075 0
-0.5223639 -0.70153689 0
-0.51982343 -0.6944322 0
-0.52062011 -0.69662941 0
-0.55305356 -0.25739306 0
-0.55438805 -0.25334862 0
-0.55456901 -0.24957715 0
-0.5550068 -0.2443987 0
-0.55080026 -0.24459679 0
-0.55327827 -0.22285877 0
-0.55520231 -0.20458181 0
-0.55494756 -0.20063743 0
-0.55774385 -0.20211929 0
-0.55655712 -0.19261526 0
-0.55702019 -0.18822499 0
-0.55790371 -0.18685694 0
-0.55985093 -0.17471951 0
-0.5581426 -0.15904056 0
-0.58805835 0.23698361 0
-0.58731133 0.24182032 0
-0.49562502 -1.1511055 0
-0.52129197 -0.73229766 0
-0.52233225 -0.73058587 0
-0.5245232 -0.71453947 0
-0.55847526 -0.25256863 0
-0.5567314 -0.24766113 0
-0.55797189 -0.24382293 0
-0.55745637 -0.23679109 0
-0.55688423 -0.22903983 0
-0.56180966 -0.21882865 0
-0.56001419 -0.22191201 0
-0.56206548 -0.21320581 0
-0.5599376 -0.2001345 0
-0.56255096 -0.19554208 0
-0.56238532 -0.18268113 0
-0.56120646 -0.18216592 0
-0.56479746 -0.17599919 0
-0.5906114 0.22948484 0
-0.49771455 -1.1608866 0
-0.49950904 -1.1528803 0
-0.50097799 -1.1472756 0
-0.49713841 -1.1486409 0
-0.56109977 -0.24204646 0
-0.56248993 -0.23450556 0
-0.56324428 -0.21372101 0
-0.5656504 -0.20789599 0
-0.5648973 -0.20391622 0
-0.56575072 -0.1778526 0
-0.59438574 0.22746934 0
-0.59786344 0.23507492 0
-0.59813237 0.23819573 0
-0.50576478 -1.1493274 0
-0.56799668 -0.21627015 0
-0.60408276 0.23348629 0
-0.50668371 -1.1516781 0
-0.50902712 -1.1459906 0
-0.60846615 0.22675315 0
-0.60595191 0.22814679 0
-0.51482689 -1.1501868 0
-0.60956913 0.22860247 0
-0.60964394 0.23045382 0
-0.61385649 0.23150885 0
-0.61364317 0.23188449 0
-0.61187011 0.23748022 0
-0.51740187 -1.1423042 0
-0.61486548 0.23315188 0
-0.61771691 0.23798145 0
-0.52257574 -1.1520915 0
-0.62069654 0.22902438 0
-0.62400544 0.23457231 0
-0.53306705 -1.0762496 0
-0.62743646 0.2254767 0
-0.62704533 0.23699945 0
-0.62686896 0.24111575 0
-0.53324008 -1.1560597 0
-0.53402168 -1.1459092 0
-0.53677922 -1.0805105 0
-0.62956756 0.22732398 0
-0.5385496 -1.1540124 0
-0.53856778 -1.1514416 0
-0.54391944 -1.0798055 0
-0.54464096 -1.0824487 0
-0.63475776 0.2299533 0
-0.63573533 0.23152757 0
-0.6379413 0.2352262 0
-0.5437398 -1.151383 0
-0.54441714 -1.1529983 0
-0.64197284 0.23250975 0
-0.54791087 -1.1619564 0
-0.5489946 -1.158462 0
-0.5483042 -1.1543448 0
-0.55010176 -1.14591 0
-0.64476913 0.23102787 0
-0.64600348 0.23400915 0
-0.64601564 0.235723 0
-0.64666677 0.24052577 0
-0.65362799 0.22761364 0
-0.65180331 0.22981286 0
-0.65410322 0.23371775 0
-0.6499027 0.23437659 0
-0.56059825 -1.1561519 0
-0.65723395 0.2214326 0
-0.56351286 -1.1539998 0
-0.57092106 -1.0533875 0
-0.66046804 0.22512916 0
-0.66381425 0.23160277 0
-0.56586301 -1.1806514 0
-0.56717831 -1.1749619 0
-0.66863644 0.22583222 0
-0.66488588 0.23338336 0
-0.57294059 -1.1800839 0
-0.57154667 -1.1693473 0
-0.57465529 -1.1659257 0
-0.57303774 -1.1656661 0
-0.57215935 -1.1612543 0
-0.57337451 -1.156628 0
-0.5733614 -1.1541259 0
-0.67383873 0.23017538 0
-0.57870191 -1.18099 0
-0.67659205 0.22480296 0
-0.58376783 -1.1828516 0
-0.5815801 -1.1839794 0
-0.68035376 0.22318156 0
-0.68387544 0.23046179 0
-0.68391287 0.23138748 0
-0.58436424 -1.1871752 0
-0.68762493 0.22712654 0
-0.58986074 -1.1804993 0
-0.59100115 -1.1777244 0
-0.6929031 0.22910517 0
-0.6930275 0.23359607 0
-0.59715968 -1.1892962 0
-0.59742254 -1.1870323 0
-0.59633172 -1.1871678 0
-0.59853768 -1.1834692 0
-0.59845579 -1.1819617 0
-0.60021746 -1.120708 0
-0.69859576 0.22720465 0
-0.69697118 0.23153026 0
-0.60011262 -1.1904343 0
-0.59977907 -1.1838468 0
-0.70180547 0.22747353 0
-0.70161742 0.227061 0
-0.60685676 -1.1832793 0
-0.70804203 0.23267156 0
-0.61318308 -1.1885777 0
-0.61095303 -1.1812139 0
-0.71031708 0.22076656 0
-0.7117542 0.22841062 0
-0.71000427 0.23246121 0
-0.61602992 -1.1916358 0
-0.71458882 0.22363858 0
-0.71848804 0.22400606 0
-0.62297606 -1.1922003 0
-0.62251109 -1.1867448 0
-0.72374696 0.22762978 0
-0.72278762 0.22862627 0
-0.6280793 -1.1931361 0
-0.62715733 -1.191214 0
-0.62700063 -1.1915578 0
-0.7243939 0.22172989 0
-0.62987882 -1.1945472 0
-0.66609371 -0.70061696 0
-0.73101264 0.2286099 0
-0.73172736 0.22792031 0
-0.63394785 -1.1963381 0
-0.63606578 -1.1919887 0
-0.73729557 0.22152889 0
-0.73511815 0.23196064 0
-0.64216775 -1.2028412 0
-0.64647895 -1.1936922 0
-0.64412707 -1.1889899 0
-0.67509431 -0.78391016 0
-0.74639809 0.22202365 0
-0.74807632 0.23104024 0
-0.64909983 -1.1952736 0
-0.64998949 -1.1930487 0
-0.66990745 -0.95534796 0
-0.6733399 -0.8796109 0
-0.6541394 -1.1921312 0
-0.65872717 -1.1860353 0
-0.6699785 -1.0263757 0
-0.67044765 -1.0211284 0
-0.66846824 -1.0189873 0
-0.66889185 -1.0158083 0
-0.66887265 -1.0141633 0
-0.67112625 -0.99797934 0
-0.67186624 -0.99945712 0
-0.67272604 -0.94355637 0
-0.67412323 -0.93937439 0
-0.6723612 -0.93703765 0
-0.6744104 -0.93368274 0
-0.67396969 -0.92479956 0
-0.75553197 0.22258711 0
-0.75598192 0.2294794 0
-0.65888578 -1.1955372 0
-0.67080587 -1.0864644 0
-0.67305613 -0.99404258 0
-0.67842865 -0.96287745 0
-0.67777556 -0.95783448 0
-0.67638862 -0.9504568 0
-0.67892617 -0.94349986 0
-0.67981791 -0.93592358 0
-0.67873526 -0.92985076 0
-0.6803326 -0.92354238 0
-0.68031943 -0.92104042 0
-0.68221295 -0.9222452 0
-0.67983532 -0.91393977 0
-0.76076663 0.22278315 0
-0.76060033 0.22326194 0
-0.66601288 -1.1923301 0
-0.6685757 -1.1861614 0
-0.67456806 -1.0901937 0
-0.68109703 -1.012749 0
-0.67804295 -1.0084583 0
-0.67722714 -1.004616 0
-0.67922491 -0.99405485 0
-0.68369466 -0.96261269 0
-0.68281323 -0.94484627 0
-0.68426311 -0.92310619 0
-0.76578194 0.2224979 0
-0.76874608 0.22728957 0
-0.76699609 0.23134014 0
-0.67438251 -1.1481383 0
-0.68150216 -1.0324037 0
-0.68075514 -1.027567 0
-0.68424362 -1.0105097 0
-0.68518037 -0.9936915 0
-0.68783015 -0.98395747 0
-0.68930632 -0.9672215 0
-0.68918437 -0.92359769 0
-0.75519067 -0.038134187 0
-0.75191218 -0.039397512 0
-0.7705121 0.2211654 0
-0.76956791 0.22430418 0
-0.77424359 0.22974946 0
-0.67753369 -1.1842965 0
-0.6791563 -1.1787764 0
-0.67927462 -1.1751424 0
-0.67714673 -1.162071 0
-0.67794335 -1.1642683 0
-0.67949015 -1.1563835 0
-0.67807281 -1.1532905 0
-0.67906672 -1.1392998 0
-0.68232608 -1.1363913 0
-0.68031037 -1.120543 0
-0.68208361 -1.1162429 0
-0.68328762 -1.1182534 0
-0.6847254 -1.0982271 0
-0.68715197 -1.0692829 0
-0.68617946 -1.0657843 0
-0.68484622 -1.0450644 0
-0.68849891 -1.0345443 0
-0.69121486 -0.98077404 0
-0.69171625 -0.98038101 0
-0.6906184 -0.9764505 0
-0.6943928 -0.91839767 0
-0.69425946 -0.90968382 0
-0.69506025 -0.9011783 0
-0.70004737 -0.88661373 0
-0.70509166 -0.81480813 0
-0.70550418 -0.80884153 0
-0.75718826 -0.042770214 0
-0.75853091 -0.032517482 0
-0.75853699 -0.031660572 0
-0.77502388 0.21513574 0
-0.68311822 -1.1782714 0
-0.68463367 -1.1704555 0
-0.68196887 -1.1678417 0
-0.6823622 -1.1602299 0
-0.68495184 -1.14739 0
-0.68227839 -1.1488767 0
-0.68229663 -1.1463058 0
-0.68696523 -1.1375016 0
-0.6845876 -1.1291962 0
-0.68676215 -1.1255662 0
-0.6861133 -1.1098206 0
-0.68778133 -1.1123637 0
-0.68919063 -1.1064678 0
-0.68807459 -1.1058152 0
-0.69115418 -1.0819138 0
-0.68717915 -1.0799168 0
-0.69008154 -1.0794786 0
-0.69179434 -1.0554745 0
-0.69207799 -1.0473965 0
-0.6913386 -1.0342436 0
-0.69482273 -0.9968009 0
-0.69310415 -0.99268156 0
-0.6959551 -0.98503703 0
-0.69570243 -0.97574133 0
-0.69913059 -0.97077525 0
-0.6992535 -0.91367531 0
-0.70392257 -0.86069375 0
-0.70736319 -0.82503366 0
-0.70701039 -0.81680113 0
-0.70778179 -0.81821012 0
-0.70818216 -0.81395733 0
-0.70776987 -0.79094374 0
-0.71020132 -0.78590691 0
-0.71227574 -0.78334028 0
-0.71064222 -0.76580989 0
-0.72000849 -0.67611063 0
-0.72022694 -0.67141348 0
-0.73323268 -0.47612152 0
-0.73367655 -0.47008616 0
-0.73624283 -0.42001861 0
-0.73394895 -0.42306656 0
-0.74599952 -0.30864596 0
-0.75325829 -0.18346316 0
-0.76017654 -0.048333943 0
-0.76457334 -0.028588902 0
-0.78106123 0.21399152 0
-0.78154862 0.22180949 0
-0.6848489 -1.1806768 0
-0.69215035 -1.1399451 0
-0.69125271 -1.1345952 0
-0.69161278 -1.1172066 0
-0.69151169 -1.1140538 0
-0.69160283 -1.0997859 0
-0.69304061 -1.0797597 0
-0.69607443 -1.0781895 0
-0.69424784 -1.0661445 0
-0.69652855 -1.0605944 0
-0.69425291 -1.0610716 0
-0.69441569 -1.059871 0
-0.69472617 -1.0451218 0
-0.69841909 -1.0477377 0
-0.69863147 -1.0438974 0
-0.69923866 -0.97870094 0
-0.70131737 -0.96543157 0
-0.70657688 -0.9038474 0
-0.70611799 -0.89753497 0
-0.70940858 -0.89455783 0
-0.70653659 -0.89071143 0
-0.70904881 -0.88296628 0
-0.71074021 -0.87645173 0
-0.70763057 -0.87565738 0
-0.70896506 -0.87161297 0
-0.71159053 -0.86530662 0
-0.71108299 -0.86726367 0
-0.70919561 -0.86520189 0
-0.71012783 -0.85556448 0
-0.70890558 -0.85683185 0
-0.71168673 -0.84596592 0
-0.71135509 -0.84922427 0
-0.71252495 -0.83653474 0
-0.7124725 -0.82511264 0
-0.71459043 -0.82076335 0
-0.71373534 -0.80800098 0
-0.71356553 -0.8058427 0
-0.71589673 -0.80186903 0
-0.71347272 -0.78128463 0
-0.71403491 -0.77161533 0
-0.71497512 -0.77096671 0
-0.71780682 -0.76167709 0
-0.71861559 -0.76216042 0
-0.71665943 -0.76109314 0
-0.71735114 -0.74044609 0
-0.71719444 -0.74078989 0
-0.71889794 -0.73256141 0
-0.71754235 -0.725115 0
-0.72128296 -0.71524554 0
-0.72191846 -0.69669408 0
-0.72191101 -0.69052017 0
-0.72162408 -0.6672315 0
-0.72153616 -0.66658086 0
-0.72569215 -0.66480643 0
-0.72752643 -0.62224996 0
-0.73158675 -0.58185577 0
-0.72905344 -0.5781101 0
-0.72987431 -0.57687956 0
-0.72836906 -0.57313585 0
-0.73057497 -0.56943721 0
-0.7316274 -0.56601155 0
-0.73311251 -0.56248027 0
-0.73349977 -0.55572546 0
-0.73168111 -0.55266929 0
-0.73302776 -0.546911 0
-0.73459375 -0.54067141 0
-0.73321289 -0.53243685 0
-0.73348182 -0.52931601 0
-0.7317754 -0.52348286 0
-0.73794764 -0.47959635 0
-0.73860389 -0.46972075 0
-0.73839474 -0.45864242 0
-0.74212027 -0.43642512 0
-0.74031377 -0.43165514 0
-0.74012476 -0.4271448 0
-0.74261081 -0.41368863 0
-0.74622023 -0.3759709 0
-0.74754572 -0.3587217 0
-0.74561805 -0.34352404 0
-0.74942738 -0.33266014 0
-0.75013024 -0.30608338 0
-0.74965924 -0.30148479 0
-0.74744016 -0.30268142 0
-0.7479406 -0.29736546 0
-0.74884951 -0.29678559 0
-0.74775863 -0.29692104 0
-0.75803792 -0.19593924 0
-0.75924706 -0.1921698 0
-0.75814265 -0.18698828 0
-0.76708633 -0.054039884 0
-0.76546782 -0.048857331 0
-0.7710737 -0.025342869 0
-0.76998293 -0.025478333 0
-0.78825104 0.21733616 0
-0.6951471 -1.1103203 0
-0.69679594 -1.1112182 0
-0.69821572 -1.0647826 0
-0.70171708 -1.0191393 0
-0.70789862 -0.95947725 0
-0.71009195 -0.89531618 0
-0.71117985 -0.88111907 0
-0.71214342 -0.87141281 0
-0.71665245 -0.84889072 0
-0.71409988 -0.8434999 0
-0.71743405 -0.83874011 0
-0.7145741 -0.83317989 0
-0.71444267 -0.83431178 0
-0.71532434 -0.823098 0
-0.71820378 -0.80132312 0
-0.71916825 -0.79724675 0
-0.71804863 -0.79420763 0
-0.72064602 -0.7730515 0
-0.71908152 -0.77183181 0
-0.72012597 -0.7594173 0
-0.72292125 -0.75668329 0
-0.72307438 -0.75466001 0
-0.72507566 -0.74577838 0
-0.72411633 -0.74478191 0
-0.72350073 -0.73881328 0
-0.7229104 -0.7336328 0
-0.72451985 -0.72561061 0
-0.72596657 -0.7187891 0
-0.72488701 -0.71228784 0
-0.72711909 -0.71430027 0
-0.72370118 -0.70770669 0
-0.72808266 -0.70459408 0
-0.7280938 -0.69866431 0
-0.72463238 -0.69385338 0
-0.72585976 -0.68751311 0
-0.72542608 -0.68198889 0
-0.72668576 -0.6797958 0
-0.72636437 -0.67149454 0
-0.72820127 -0.6719799 0
-0.7272895 -0.65849811 0
-0.72947019 -0.65401131 0
-0.72836429 -0.64179897 0
-0.73208249 -0.64520299 0
-0.73196322 -0.64462107 0
-0.73172981 -0.63697046 0
-0.73340195 -0.62881076 0
-0.72993541 -0.63048661 0
-0.73203933 -0.61800534 0
-0.73448986 -0.61461359 0
-0.73209494 -0.61450893 0
-0.73465776 -0.60834014 0
-0.73505205 -0.60494429 0
-0.73531395 -0.59846455 0
-0.73565769 -0.59349239 0
-0.73324972 -0.58947158 0
-0.73317391 -0.58710706 0
-0.73250872 -0.58377796 0
-0.73326504 -0.5728392 0
-0.73696822 -0.5638954 0
-0.73634046 -0.55964059 0
-0.73527396 -0.55634838 0
-0.7377699 -0.56101978 0
-0.7349717 -0.54969215 0
-0.73756331 -0.54669803 0
-0.73732126 -0.54314774 0
-0.73857802 -0.52689302 0
-0.73645908 -0.52702641 0
-0.73709095 -0.52057856 0
-0.73912102 -0.51557857 0
-0.74279088 -0.49685779 0
-0.7413221 -0.48797253 0
-0.74501628 -0.46582404 0
-0.74530059 -0.44607079 0
-0.74575657 -0.43832159 0
-0.74413204 -0.43399599 0
-0.74935853 -0.39442998 0
-0.74977851 -0.39463723 0
-0.74782974 -0.36794868 0
-0.7504856 -0.35735777 0
-0.75288272 -0.33832803 0
-0.7503736 -0.33115458 0
-0.75494212 -0.32341358 0
-0.75470871 -0.31576294 0
-0.75745469 -0.28668824 0
-0.75601822 -0.28195009 0
-0.75874889 -0.26950783 0
-0.75878632 -0.26858214 0
-0.75812274 -0.25779372 0
-0.75751984 -0.25221917 0
-0.75646842 -0.2460776 0
-0.76017195 -0.20815361 0
-0.76146901 -0.20503484 0
-0.76186234 -0.19742312 0
-0.76318783 -0.18017396 0
-0.76429081 -0.17832464 0
-0.76611263 -0.16646223 0
-0.76538479 -0.16327062 0
-0.76568222 -0.1460194 0
-0.76580048 -0.14238544 0
-0.76963538 -0.10332949 0
-0.77076679 -0.08734978 0
-0.7720418 -0.068524271 0
-0.77361995 -0.06057084 0
-0.77141726 -0.049350902 0
-0.77433306 -0.022434447 0
-0.77481622 -0.025319174 0
-0.77789581 -0.0014179001 0
-0.78309685 0.070731439 0
-0.78137755 0.1080469 0
-0.79111004 0.2159918 0
-0.79049444 0.22196047 0
-0.71098208 -0.95526749 0
-0.7149474 -0.91086376 0
-0.72607219 -0.77482945 0
-0.72762859 -0.72218901 0
-0.73277235 -0.7072807 0
-0.73241961 -0.69904816 0
-0.73654169 -0.65430063 0
-0.73586947 -0.64761257 0
-0.73292261 -0.64561754 0
-0.73468274 -0.63810855 0
-0.73455739 -0.63838351 0
-0.73379725 -0.63104481 0
-0.73867303 -0.62347317 0
-0.73714763 -0.61386847 0
-0.73881406 -0.57758552 0
-0.74235475 -0.5408622 0
-0.74353379 -0.51239723 0
-0.74503905 -0.51614088 0
-0.74579632 -0.50941795 0
-0.74355811 -0.50896949 0
-0.74322456 -0.50238204 0
-0.74612695 -0.50194377 0
-0.74367803 -0.49716923 0
-0.74426484 -0.50067019 0
-0.74510908 -0.49038211 0
-0.74443078 -0.48455095 0
-0.74800706 -0.458253 0
-0.74930882 -0.45784488 0
-0.74673104 -0.45166585 0
-0.74900568 -0.44697279 0
-0.74766928 -0.44117147 0
-0.74924326 -0.44392073 0
-0.74820012 -0.43157089 0
-0.75219041 -0.4169355 0
-0.75049108 -0.41446128 0
-0.7507661 -0.41048354 0
-0.75177503 -0.40884048 0
-0.75220627 -0.40241104 0
-0.75142646 -0.38990524 0
-0.75251633 -0.38555393 0
-0.75332505 -0.38603723 0
-0.75381339 -0.38243514 0
-0.75416321 -0.37660605 0
-0.75265092 -0.36950341 0
-0.75566971 -0.3555854 0
-0.75547975 -0.34615216 0
-0.75672817 -0.3513028 0
-0.75626326 -0.34584731 0
-0.75517851 -0.34512585 0
-0.75653368 -0.32949889 0
-0.75563872 -0.32667395 0
-0.75877869 -0.32318363 0
-0.75914162 -0.31985652 0
-0.75872624 -0.3117615 0
-0.75742918 -0.31488028 0
-0.758874 -0.29821303 0
-0.75889218 -0.29564226 0
-0.75975311 -0.29024264 0
-0.76280159 -0.28371516 0
-0.76214653 -0.28402352 0
-0.76330107 -0.27418333 0
-0.7625106 -0.27112922 0
-0.76275235 -0.25737447 0
-0.76143932 -0.24392958 0
-0.76213998 -0.23648725 0
-0.76246554 -0.23408586 0
-0.76240891 -0.23336643 0
-0.7631802 -0.23477545 0
-0.76485431 -0.23646151 0
-0.76310998 -0.22873904 0
-0.76500815 -0.22205609 0
-0.7663992 -0.21873106 0
-0.76561475 -0.21482003 0
-0.76752454 -0.20360829 0
-0.7664206 -0.20124172 0
-0.76802725 -0.17915788 0
-0.77055258 -0.17391479 0
-0.76798838 -0.17305274 0
-0.77305299 -0.13890329 0
-0.77381957 -0.11640488 0
-0.77449685 -0.11802016 0
-0.77307439 -0.12141394 0
-0.77424824 -0.11321886 0
-0.77591032 -0.10142166 0
-0.77521992 -0.097304374 0
-0.77652621 -0.078410104 0
-0.77604395 -0.081155263 0
-0.77558506 -0.074842848 0
-0.77727544 -0.06411235 0
-0.77524608 -0.057437159 0
-0.77745646 -0.060340881 0
-0.77587545 -0.054232676 0
-0.77890766 -0.013836479 0
-0.78131086 0.0060501662 0
-0.78336608 0.010261947 0
-0.78376043 0.013657785 0
-0.7838679 0.040342227 0
-0.78584224 0.041845724 0
-0.78763688 0.064342096 0
-0.78781086 0.071472526 0
-0.78871775 0.081898145 0
-0.78909892 0.087796003 0
-0.78707826 0.098571531 0
-0.79006469 0.11663665 0
-0.78762537 0.12058866 0
-0.78864497 0.13097639 0
-0.79216152 0.13247681 0
-0.7935437 0.14900656 0
-0.79230034 0.15923004 0
-0.7936815 0.17997567 0
-0.79440039 0.18998876 0
-0.79725641 0.20270607 0
-0.79488486 0.21186839 0
-0.79539746 0.21889819 0
-0.7369622 -0.65732288 0
-0.75428414 -0.41601396 0
-0.75693709 -0.39136136 0
-0.75988138 -0.3503145 0
-0.76368809 -0.29640874 0
-0.7633546 -0.28982133 0
-0.76465482 -0.27178398 0
-0.76506925 -0.27566314 0
-0.76914144 -0.26253536 0
-0.76726747 -0.23399545 0
-0.76799244 -0.22312543 0
-0.77225453 -0.21943089 0
-0.76874268 -0.21304357 0
-0.77391779 -0.19806647 0
-0.77255934 -0.17655842 0
-0.77198303 -0.17950983 0
-0.77349246 -0.17255084 0
-0.77404857 -0.16373843 0
-0.77415127 -0.15943184 0
-0.77385861 -0.15430519 0
-0.77715528 -0.15047109 0
-0.77512145 -0.13719355 0
-0.77791762 -0.13867539 0
-0.77533376 -0.13335331 0
-0.77834231 -0.13099493 0
-0.77807754 -0.12341306 0
-0.77788341 -0.12468249 0
-0.77653396 -0.11637916 0
-0.77717191 -0.10907433 0
-0.77582431 -0.11061676 0
-0.77974683 -0.1011917 0
-0.77869952 -0.09954457 0
-0.77894318 -0.095635571 0
-0.78137022 -0.06950628 0
-0.78049737 -0.062129632 0
-0.78030324 -0.063399099 0
-0.78061569 -0.058495663 0
-0.78536355 -0.008157175 0
-0.78418481 -0.0076419637 0
-0.78396356 0.0017225156 0
-0.78366935 -0.0006101199 0
-0.78722888 0.0054878499 0
-0.7882359 0.016976669 0
-0.78489476 0.015575855 0
-0.78833503 0.022255752 0
-0.78771335 0.027367471 0
-0.7882784 0.022975145 0
-0.78723627 0.031109106 0
-0.78945428 0.036521602 0
-0.79119426 0.049891613 0
-0.78905523 0.057033189 0
-0.78874177 0.056345649 0
-0.79101646 0.061038721 0
-0.788854 0.059122682 0
-0.79096401 0.072460793 0
-0.79176474 0.080966331 0
-0.7917577 0.084325291 0
-0.79385746 0.086103812 0
-0.79144943 0.090124547 0
-0.79445797 0.092482932 0
-0.7917366 0.095816128 0
-0.79154247 0.094546691 0
-0.79402244 0.10714597 0
-0.79306471 0.11560171 0
-0.79385167 0.11422709 0
-0.79262149 0.12194853 0
-0.79448968 0.12153191 0
-0.79375577 0.1238666 0
-0.79402786 0.14190599 0
-0.79393995 0.14255664 0
-0.79617107 0.14546709 0
-0.79750556 0.14951155 0
-0.7965644 0.15307879 0
-0.79698718 0.17060503 0
-0.79788995 0.17032798 0
-0.79742497 0.17578347 0
-0.79819632 0.17437446 0
-0.79897785 0.18452507 0
-0.80053681 0.1941236 0
-0.80120009 0.20064026 0
-0.79785889 0.19923942 0
-0.80065322 0.20760334 0
-0.7984342 0.20640673 0
-0.79997492 0.21343447 0
-0.78091544 -0.11326653 0
-0.78460252 -0.087759078 0
-0.78324884 -0.090158425 0
-0.79198164 0.031918924 0
-0.79525143 0.075367182 0
-0.7955578 0.079413697 0
-0.79803616 0.13013192 0
-0.79967093 0.13736594 0
-0.79984581 0.14028049 0
-0.80168265 0.13979511 0
-0.79966801 0.15142757 0
-0.80052441 0.16342953 0
-0.80097437 0.17032184 0
-0.80413669 0.18708561 0
-0.80479896 0.19781815 0
-0.80796432 0.20052029 0
0 0 0 1 0 0 0 1 0 0 0 1 0 0 0 0 0 3165 1 0 0
