ply
format ascii 1.0
comment Created by Open3D
element vertex 1474
property double x
property double y
property double z
property uchar red
property uchar green
property uchar blue
end_header
3.286 -1.646 -0.08 26 23 18
4.785 -2.43 -0.289 41 40 42
4.803 -2.473 -0.461 143 136 130
4.795 -2.512 -0.651 146 138 135
3.302 -1.562 -0.079 39 36 33
3.353 -1.608 -0.2 45 44 46
3.367 -1.635 -0.321 56 48 47
4.802 -2.369 -0.648 123 114 109
3.458 -1.542 -0.082 135 127 124
4.819 -2.175 -0.286 140 137 134
4.818 -2.202 -0.457 136 129 123
4.815 -2.235 -0.647 136 129 123
4.834 -2.028 -0.112 136 128 125
4.831 -2.05 -0.284 139 131 128
4.834 -2.074 -0.455 141 134 128
4.826 -2.099 -0.645 139 131 128
4.84 -1.904 -0.111 141 133 130
4.839 -1.922 -0.283 142 134 131
4.844 -1.945 -0.454 143 135 132
4.834 -1.967 -0.643 141 136 132
4.849 -1.782 -0.11 140 137 132
4.843 -1.795 -0.281 144 139 135
4.844 -1.813 -0.452 146 141 137
4.844 -1.835 -0.642 144 139 135
4.858 -1.662 -0.109 155 152 149
4.852 -1.674 -0.28 158 154 155
4.861 -1.689 -0.452 147 144 141
4.846 -1.704 -0.64 147 144 141
4.86 -1.543 -0.108 34 36 44
4.859 -1.551 -0.279 155 155 155
4.861 -1.562 -0.45 148 147 147
4.859 -1.577 -0.64 152 149 146
4.872 -1.427 -0.107 0 255 0
4.866 -1.432 -0.279 154 155 151
4.872 -1.44 -0.45 153 152 152
4.872 -1.453 -0.64 152 151 151
4.878 -1.311 -0.106 0 0 255
4.876 -1.314 -0.278 155 155 155
4.881 -1.32 -0.449 155 155 155
4.869 -1.326 -0.638 157 157 157
2.509 -0.615 -0.054 0 0 255
2.515 -0.616 -0.143 153 156 155
4.888 -1.198 -0.449 158 158 158
4.879 -1.203 -0.638 162 162 164
2.512 -0.556 -0.054 150 153 152
2.518 -0.556 -0.143 155 158 157
4.897 -1.078 -0.449 158 161 162
4.891 -1.079 -0.639 164 167 168
2.515 -0.497 -0.054 150 153 152
2.514 -0.494 -0.142 151 157 155
4.899 -0.959 -0.449 158 164 164
4.9 -0.958 -0.639 166 169 170
2.519 -0.439 -0.054 147 153 151
2.522 -0.436 -0.143 151 157 155
4.909 -0.84 -0.449 160 168 167
4.908 -0.838 -0.64 167 173 173
2.525 -0.382 -0.054 146 152 150
2.526 -0.377 -0.143 150 156 154
4.916 -0.723 -0.449 162 170 169
4.919 -0.717 -0.641 169 175 175
2.529 -0.325 -0.055 146 152 152
2.525 -0.318 -0.143 149 155 155
4.932 -0.608 -0.451 162 170 169
4.916 -0.596 -0.64 169 177 178
2.536 -0.269 -0.055 146 152 152
2.53 -0.259 -0.143 148 156 155
4.936 -0.491 -0.451 163 171 172
4.928 -0.477 -0.642 167 175 176
2.541 -0.211 -0.055 144 152 151
2.534 -0.201 -0.144 147 155 154
4.939 -0.373 -0.452 162 170 171
4.938 -0.359 -0.643 169 177 178
2.545 -0.154 -0.056 144 152 151
2.538 -0.142 -0.144 148 156 155
4.949 -0.256 -0.454 163 171 172
4.946 -0.238 -0.645 167 175 176
2.545 -0.097 -0.057 144 152 151
2.542 -0.084 -0.145 146 157 155
4.951 -0.139 -0.455 160 171 171
4.947 -0.118 -0.646 166 174 175
2.547 -0.04 -0.057 144 152 151
2.545 -0.025 -0.146 145 156 154
4.964 -0.023 -0.457 161 169 170
4.961 0.001 -0.649 163 171 172
2.553 0.017 -0.058 144 152 151
2.545 0.032 -0.146 146 157 155
4.967 0.094 -0.458 160 168 169
4.965 0.121 -0.65 162 170 171
2.552 0.074 -0.059 142 150 149
2.551 0.091 -0.147 147 155 154
4.977 0.211 -0.46 160 168 169
4.974 0.242 -0.653 160 168 169
2.554 0.131 -0.06 142 150 147
2.555 0.15 -0.148 145 156 154
4.979 0.329 -0.462 159 167 168
4.983 0.363 -0.656 158 169 169
2.557 0.189 -0.061 141 149 146
2.558 0.21 -0.15 146 157 155
4.993 0.449 -0.465 154 165 165
4.987 0.486 -0.658 157 168 168
2.557 0.247 -0.062 65 37 45
2.564 0.27 -0.151 145 156 154
4.999 0.568 -0.468 154 165 165
4.999 0.609 -0.662 157 168 168
2.563 0.306 -0.063 0 255 0
2.569 0.33 -0.152 146 157 155
5.001 0.689 -0.47 153 164 164
4.998 0.732 -0.664 158 169 169
2.571 0.365 -0.064 31 38 44
2.575 0.392 -0.154 148 156 155
5.015 0.811 -0.474 152 163 163
5.004 0.858 -0.668 159 170 168
2.574 0.424 -0.066 141 147 145
2.578 0.453 -0.155 144 155 155
5.025 0.935 -0.477 148 159 159
5.014 0.985 -0.672 161 169 170
2.58 0.486 -0.068 113 120 124
2.581 0.515 -0.157 117 128 128
5.023 1.058 -0.48 138 148 151
5.02 1.112 -0.676 160 168 169
2.588 0.548 -0.069 97 105 106
2.587 0.579 -0.159 13 25 39
4.874 1.147 -0.469 16 29 40
4.795 1.185 -0.649 85 100 115
2.588 0.609 -0.071 36 57 76
2.594 0.644 -0.161 19 42 77
4.399 1.147 -0.426 20 43 76
5.043 1.378 -0.686 52 65 76
2.59 0.671 -0.073 44 44 40
2.596 0.709 -0.163 101 113 115
4.404 1.261 -0.43 44 56 60
5.06 1.515 -0.692 60 67 75
2.602 0.737 -0.075 64 57 49
4.423 1.317 -0.281 124 135 135
4.408 1.374 -0.433 142 152 157
5.076 1.656 -0.699 64 70 81
4.451 1.37 -0.132 46 48 58
4.425 1.43 -0.285 131 139 138
4.426 1.495 -0.439 54 68 74
5.056 1.784 -0.7 84 89 94
4.46 1.484 -0.136 51 48 45
4.437 1.546 -0.289 24 43 63
4.47 1.628 -0.447 44 54 59
5.068 1.928 -0.707 146 134 118
5.086 1.82 -0.16 41 44 45
4.457 1.671 -0.294 23 43 67
4.466 1.747 -0.451 100 110 117
5.104 2.084 -0.717 150 137 115
5.098 1.955 -0.165 36 44 45
4.462 1.79 -0.299 23 43 67
4.491 1.882 -0.458 124 129 134
5.109 2.233 -0.724 182 180 170
4.952 2.029 -0.165 34 40 42
4.473 1.917 -0.304 27 42 66
4.505 2.014 -0.464 48 55 61
5.117 2.386 -0.731 178 179 175
4.667 2.036 -0.16 13 19 19
4.487 2.047 -0.31 24 38 58
4.523 2.151 -0.471 52 59 65
5.128 2.543 -0.739 174 174 174
4.526 2.098 -0.16 30 23 17
4.514 2.187 -0.316 35 47 63
4.535 2.29 -0.478 140 146 148
4.536 2.228 -0.166 88 79 72
4.528 2.324 -0.323 53 64 73
3.3 -1.65 -0.055 20 20 16
4.78 -2.43 -0.227 38 38 40
4.766 -2.458 -0.37 139 130 125
4.794 -2.516 -0.532 148 140 137
3.298 -1.558 -0.052 26 26 22
3.344 -1.604 -0.156 49 43 47
4.821 -2.345 -0.372 131 127 128
4.806 -2.376 -0.531 121 112 107
3.459 -1.541 -0.052 130 122 119
4.822 -2.178 -0.223 140 135 133
3.416 -1.564 -0.262 139 132 126
3.366 -1.565 -0.371 137 128 123
4.833 -2.023 -0.07 136 128 125
4.829 -2.049 -0.22 138 130 127
4.835 -2.077 -0.369 138 131 125
4.826 -2.104 -0.53 139 131 128
4.839 -1.9 -0.066 138 130 127
4.851 -1.928 -0.218 142 134 131
4.841 -1.946 -0.367 143 135 132
4.839 -1.972 -0.531 142 134 131
4.853 -1.781 -0.063 140 137 134
4.849 -1.799 -0.216 143 138 134
4.845 -1.817 -0.366 146 141 137
4.85 -1.842 -0.531 144 139 135
4.859 -1.66 -0.06 154 151 148
4.855 -1.677 -0.214 157 153 154
4.86 -1.693 -0.365 147 144 139
4.851 -1.71 -0.53 147 142 138
4.864 -1.541 -0.058 113 109 112
4.865 -1.555 -0.212 156 98 102
4.864 -1.568 -0.364 147 146 146
4.861 -1.582 -0.53 150 147 144
4.878 -1.427 -0.055 0 0 255
4.869 -1.434 -0.21 0 255 0
4.87 -1.445 -0.363 150 150 150
4.867 -1.456 -0.531 152 151 151
4.883 -1.31 -0.053 255 0 0
4.876 -1.316 -0.209 0 255 0
4.883 -1.324 -0.363 153 153 153
4.872 -1.331 -0.531 155 155 157
2.513 -0.614 -0.026 0 0 255
2.513 -0.616 -0.107 155 156 152
2.519 -0.619 -0.186 157 157 159
4.882 -1.207 -0.532 160 160 162
2.511 -0.555 -0.025 150 153 152
2.515 -0.556 -0.106 152 156 151
2.517 -0.556 -0.186 158 161 162
4.894 -1.085 -0.533 162 165 166
2.513 -0.496 -0.024 149 152 151
2.513 -0.496 -0.105 151 154 153
2.518 -0.495 -0.186 160 163 164
4.902 -0.963 -0.534 164 167 168
2.521 -0.44 -0.023 146 152 150
2.517 -0.436 -0.105 149 155 153
2.524 -0.435 -0.186 160 166 166
4.907 -0.842 -0.535 164 170 170
2.525 -0.382 -0.022 146 152 150
2.526 -0.378 -0.105 148 154 152
2.529 -0.374 -0.186 161 169 168
4.916 -0.722 -0.537 165 171 171
2.531 -0.325 -0.021 145 151 151
2.527 -0.32 -0.104 148 154 152
2.529 -0.314 -0.186 162 170 169
4.924 -0.601 -0.538 167 173 173
2.533 -0.268 -0.021 145 151 151
2.532 -0.261 -0.104 147 153 151
2.535 -0.254 -0.187 161 169 168
4.932 -0.482 -0.54 166 174 175
2.534 -0.211 -0.02 145 151 151
2.535 -0.203 -0.104 146 154 153
2.537 -0.194 -0.187 161 169 168
4.939 -0.362 -0.542 167 175 176
2.536 -0.154 -0.02 142 150 149
2.54 -0.145 -0.104 145 153 152
2.54 -0.134 -0.187 159 170 168
4.946 -0.242 -0.544 166 174 175
2.546 -0.098 -0.019 142 150 149
2.544 -0.086 -0.104 145 153 150
2.544 -0.075 -0.188 159 170 168
4.953 -0.123 -0.546 164 172 173
2.544 -0.041 -0.019 142 150 149
2.546 -0.028 -0.104 145 153 150
2.546 -0.014 -0.188 158 169 167
4.962 -0.003 -0.549 163 171 172
2.549 0.015 -0.018 142 150 149
2.547 0.03 -0.104 145 153 150
2.551 0.045 -0.189 157 168 166
4.967 0.116 -0.551 161 169 170
2.55 0.072 -0.018 141 149 148
2.55 0.088 -0.104 142 153 149
2.554 0.105 -0.19 157 168 166
4.979 0.238 -0.555 161 169 170
2.556 0.13 -0.018 141 149 148
2.553 0.147 -0.105 142 153 149
2.557 0.165 -0.191 155 166 164
4.983 0.358 -0.557 159 167 168
2.562 0.188 -0.018 141 149 146
2.558 0.207 -0.105 142 150 147
2.568 0.227 -0.192 154 165 163
4.992 0.482 -0.561 155 166 166
2.564 0.245 -0.018 32 38 40
2.564 0.267 -0.105 142 150 147
2.562 0.288 -0.192 153 164 164
4.994 0.604 -0.563 155 166 166
2.565 0.304 -0.018 0 0 255
2.571 0.327 -0.106 141 149 146
2.57 0.35 -0.194 151 162 162
5 0.729 -0.567 155 166 166
2.57 0.363 -0.018 0 0 255
2.572 0.388 -0.107 140 148 147
2.577 0.413 -0.195 147 158 158
5.011 0.854 -0.571 155 166 166
2.579 0.423 -0.018 140 147 141
2.581 0.45 -0.107 140 148 147
2.592 0.478 -0.197 145 156 156
5.019 0.981 -0.575 152 163 163
2.582 0.483 -0.018 113 119 119
2.588 0.513 -0.108 111 119 120
2.588 0.541 -0.198 109 116 120
5.003 1.104 -0.577 119 126 130
2.583 0.544 -0.019 97 105 106
2.588 0.575 -0.109 10 22 36
2.595 0.607 -0.2 29 41 57
4.454 1.097 -0.517 63 84 101
2.58 0.604 -0.019 13 29 48
2.594 0.64 -0.11 17 40 73
2.602 0.674 -0.201 25 40 57
4.398 1.198 -0.513 50 62 68
2.597 0.67 -0.019 29 35 46
2.594 0.704 -0.111 33 29 22
4.399 1.251 -0.343 43 55 61
4.406 1.315 -0.518 56 70 76
2.6 0.734 -0.02 46 56 61
4.47 1.324 -0.193 77 68 51
4.422 1.372 -0.347 60 72 78
4.413 1.434 -0.522 58 70 74
4.443 1.362 -0.035 88 100 102
4.472 1.438 -0.194 75 68 60
4.42 1.485 -0.35 51 63 69
4.438 1.561 -0.53 51 63 67
4.448 1.473 -0.036 54 66 70
5.076 1.76 -0.223 65 58 48
4.457 1.616 -0.356 39 49 56
4.475 1.697 -0.538 55 65 70
5.082 1.81 -0.043 41 51 54
5.084 1.896 -0.226 36 42 44
4.481 1.745 -0.361 59 69 74
4.487 1.828 -0.544 58 68 71
5.096 1.946 -0.045 41 49 48
5.091 2.033 -0.228 34 40 40
4.497 1.875 -0.365 65 75 82
4.863 2.12 -0.595 52 62 69
4.915 2.004 -0.045 40 48 47
4.874 2.079 -0.221 23 29 31
4.51 2.007 -0.37 41 51 58
4.961 2.307 -0.613 56 63 71
4.682 2.033 -0.044 12 18 18
4.591 2.084 -0.211 12 18 20
4.522 2.142 -0.374 47 54 60
4.915 2.431 -0.613 56 63 69
4.525 2.087 -0.045 18 24 24
4.546 2.192 -0.212 63 43 23
4.533 2.279 -0.379 75 84 96
4.532 2.215 -0.047 40 47 51
4.547 2.323 -0.215 45 37 36
3.312 -1.686 0.12 59 48 41
4.2 -2.192 0.054 88 65 44
3.285 -1.582 0.121 66 62 55
3.315 -1.634 0.043 19 19 19
3.3 -1.664 -0.032 13 14 10
4.771 -2.466 -0.165 52 41 34
3.488 -1.584 0.13 89 68 51
3.313 -1.541 0.044 21 20 20
3.297 -1.566 -0.032 33 32 32
3.315 -1.613 -0.116 24 23 23
4.831 -2.065 0.183 93 70 49
4.829 -2.112 0.065 99 80 65
3.46 -1.546 -0.034 130 122 119
3.38 -1.545 -0.12 139 136 133
4.838 -1.942 0.186 77 61 54
4.841 -1.987 0.067 132 124 121
4.833 -2.025 -0.048 135 127 124
4.828 -2.069 -0.173 137 129 126
4.843 -1.82 0.189 92 77 67
4.85 -1.863 0.068 136 128 125
4.844 -1.897 -0.049 138 130 127
4.839 -1.938 -0.176 139 134 130
4.86 -1.704 0.192 144 139 137
4.853 -1.737 0.069 137 132 130
4.859 -1.773 -0.05 139 136 133
4.846 -1.806 -0.178 142 137 133
4.868 -1.586 0.195 148 147 147
4.864 -1.617 0.07 153 149 150
4.865 -1.647 -0.05 154 151 148
4.855 -1.678 -0.18 156 152 153
4.877 -1.469 0.198 148 148 144
4.874 -1.498 0.071 41 40 44
4.872 -1.522 -0.05 150 147 144
4.862 -1.551 -0.183 238 4 4
4.886 -1.355 0.201 149 150 146
4.881 -1.378 0.072 36 39 42
4.884 -1.402 -0.051 255 0 0
4.873 -1.425 -0.185 0 255 0
2.507 -0.635 0.104 149 150 146
2.497 -0.644 0.037 149 149 149
4.887 -1.28 -0.051 255 0 0
4.881 -1.301 -0.187 49 47 54
2.511 -0.577 0.106 140 143 142
2.51 -0.586 0.038 151 151 151
2.51 -0.594 -0.026 152 152 152
2.513 -0.605 -0.097 153 153 153
2.512 -0.519 0.107 144 147 148
2.51 -0.526 0.039 145 148 147
2.513 -0.533 -0.027 149 152 151
2.52 -0.542 -0.098 152 155 154
2.515 -0.461 0.108 142 148 148
2.513 -0.467 0.039 148 151 150
2.517 -0.472 -0.027 149 152 151
2.521 -0.479 -0.099 151 154 153
2.52 -0.404 0.11 143 149 149
2.516 -0.408 0.04 145 151 151
2.518 -0.412 -0.027 146 152 150
2.518 -0.416 -0.1 149 155 153
2.525 -0.348 0.111 141 147 149
2.522 -0.35 0.04 143 149 149
2.529 -0.353 -0.027 146 152 152
2.528 -0.355 -0.101 148 154 152
4.934 -0.57 0.22 141 147 147
2.521 -0.291 0.041 142 148 148
2.536 -0.293 -0.027 145 151 151
2.534 -0.294 -0.103 148 154 152
3.438 -0.319 0.155 141 147 147
4.944 -0.458 0.081 143 149 149
2.536 -0.233 -0.028 145 151 151
2.537 -0.232 -0.104 147 153 153
3.442 -0.243 0.157 141 147 147
4.951 -0.344 0.083 142 148 148
2.54 -0.173 -0.028 142 150 149
2.544 -0.171 -0.105 146 154 151
3.44 -0.165 0.158 141 147 147
4.96 -0.231 0.084 141 149 148
2.542 -0.113 -0.028 142 150 149
2.547 -0.109 -0.106 146 154 151
2.544 -0.066 0.118 146 154 153
2.544 -0.06 0.043 140 148 147
2.551 -0.054 -0.028 142 150 149
2.549 -0.047 -0.107 145 153 150
2.549 -0.009 0.12 145 153 154
2.547 -0.002 0.044 145 153 152
2.556 0.005 -0.028 142 150 149
2.551 0.014 -0.108 145 153 150
2.548 0.046 0.121 145 153 154
2.548 0.056 0.045 146 154 153
2.555 0.066 -0.028 141 149 148
2.553 0.075 -0.109 142 153 149
2.548 0.103 0.122 142 153 153
2.552 0.114 0.045 140 148 147
2.555 0.126 -0.029 141 149 148
2.556 0.138 -0.11 142 153 149
2.555 0.16 0.124 139 147 146
2.553 0.173 0.046 140 148 145
2.561 0.187 -0.029 141 149 146
2.564 0.201 -0.111 142 150 147
5 0.426 0.245 140 146 146
5 0.454 0.091 138 146 143
2.563 0.248 -0.029 33 38 43
2.566 0.264 -0.113 142 150 147
5.008 0.539 0.248 138 146 145
5.007 0.571 0.093 30 36 38
2.562 0.308 -0.029 0 0 255
2.573 0.328 -0.114 141 149 148
5.019 0.654 0.251 137 145 144
5.013 0.688 0.094 38 41 44
2.572 0.372 -0.029 143 147 142
2.576 0.392 -0.115 141 149 148
5.02 0.767 0.253 138 144 142
2.573 0.413 0.049 139 146 140
2.578 0.434 -0.029 140 147 141
2.578 0.457 -0.116 141 149 148
2.578 0.452 0.131 135 143 140
2.58 0.475 0.05 112 118 116
2.579 0.497 -0.029 109 117 118
2.59 0.524 -0.118 105 116 116
2.584 0.514 0.133 103 111 110
2.577 0.536 0.05 99 107 108
2.589 0.563 -0.03 17 29 45
2.591 0.589 -0.119 16 29 40
2.58 0.572 0.134 10 22 36
2.584 0.599 0.051 10 22 38
2.595 0.629 -0.03 13 36 69
2.595 0.657 -0.12 19 44 69
2.589 0.635 0.136 18 39 70
2.594 0.665 0.052 14 35 54
2.595 0.693 -0.03 39 46 52
2.606 0.728 -0.121 25 25 27
2.592 0.697 0.137 39 44 51
2.596 0.729 0.053 50 60 67
2.596 0.76 -0.03 44 54 59
4.476 1.367 -0.211 22 28 28
5.052 1.481 0.271 23 29 29
4.448 1.36 0.092 54 66 72
4.447 1.416 -0.051 48 58 63
4.479 1.489 -0.212 26 25 25
5.022 1.595 0.272 20 23 24
4.453 1.474 0.093 52 62 67
4.45 1.535 -0.051 40 50 53
5.082 1.827 -0.243 33 41 40
5.089 1.741 0.279 18 21 22
5.084 1.814 0.108 37 47 52
5.095 1.892 -0.059 41 49 48
5.087 1.971 -0.245 32 40 39
5.084 1.868 0.282 14 20 20
5.103 1.953 0.111 48 56 55
5.022 2.001 -0.058 42 48 48
5.04 2.094 -0.245 29 35 37
5.086 1.998 0.285 17 20 21
4.893 2.002 0.108 48 54 54
4.766 2.031 -0.055 12 18 20
4.705 2.09 -0.231 12 19 23
5.104 2.137 0.289 16 19 22
4.65 2.029 0.104 16 22 22
4.522 2.053 -0.052 15 21 21
4.542 2.151 -0.225 16 19 20
5.124 2.281 0.294 16 22 22
4.525 2.099 0.103 19 27 28
4.531 2.188 -0.052 37 42 47
4.549 2.291 -0.227 39 30 35
5.132 2.423 0.298 19 25 25
4.536 2.231 0.105 32 42 45
4.543 2.327 -0.052 42 49 55
5.146 2.571 0.302 18 26 27
4.204 -2.141 0.565 101 94 84
3.347 -1.612 0.449 83 78 74
3.343 -1.676 0.392 102 95 89
4.19 -2.179 0.422 72 49 28
4.496 -2.044 0.602 70 49 32
3.367 -1.593 0.392 97 90 84
3.345 -1.643 0.333 83 73 71
4.195 -2.142 0.342 108 87 74
4.528 -1.939 0.605 21 32 53
4.522 -2.015 0.523 85 62 41
3.42 -1.581 0.336 74 50 34
3.345 -1.609 0.267 111 106 104
4.842 -1.947 0.647 61 26 23
4.596 -1.925 0.529 32 23 14
4.523 -1.965 0.44 81 58 37
4.504 -2.034 0.353 88 65 46
2.851 -1.074 0.381 74 35 31
4.853 -1.903 0.556 109 105 96
4.787 -1.948 0.461 26 22 11
4.523 -1.914 0.348 43 26 10
2.86 -1.006 0.382 147 142 138
4.862 -1.781 0.555 121 112 105
4.861 -1.847 0.464 91 68 49
4.85 -1.918 0.366 93 65 46
2.865 -0.937 0.383 147 144 139
4.866 -1.657 0.554 147 144 139
4.864 -1.72 0.46 137 129 126
4.857 -1.786 0.361 122 106 99
2.878 -0.871 0.385 147 144 139
4.87 -1.536 0.552 146 146 142
4.875 -1.596 0.458 148 145 142
4.866 -1.659 0.355 150 147 144
2.881 -0.803 0.385 144 145 141
4.879 -1.418 0.552 146 146 142
4.881 -1.473 0.455 147 147 143
4.866 -1.53 0.35 148 148 144
2.511 -0.64 0.336 143 143 143
4.889 -1.302 0.552 146 146 142
4.886 -1.351 0.452 145 145 145
4.879 -1.405 0.346 147 147 147
2.506 -0.581 0.336 143 143 143
2.502 -0.605 0.282 145 146 142
2.506 -0.63 0.23 145 145 145
4.887 -1.282 0.341 146 147 143
2.504 -0.522 0.337 144 144 144
2.508 -0.547 0.282 144 144 144
2.508 -0.568 0.229 146 146 146
2.505 -0.593 0.173 147 147 147
2.508 -0.466 0.338 140 143 142
2.51 -0.488 0.282 144 144 144
2.508 -0.507 0.228 136 139 142
2.508 -0.53 0.171 142 145 148
2.512 -0.409 0.34 140 143 142
2.511 -0.429 0.282 141 144 143
2.515 -0.448 0.228 138 141 142
2.515 -0.468 0.169 140 146 146
2.514 -0.353 0.341 140 143 142
2.517 -0.371 0.283 141 144 143
2.519 -0.388 0.227 141 144 143
2.515 -0.406 0.167 43 52 62
2.519 -0.297 0.343 140 143 142
2.519 -0.314 0.283 141 144 143
2.526 -0.329 0.227 143 146 145
2.522 -0.345 0.166 140 146 146
2.52 -0.241 0.344 0 0 255
2.521 -0.255 0.284 139 145 143
2.528 -0.269 0.227 139 145 145
4.936 -0.555 0.323 140 146 146
2.528 -0.186 0.347 140 143 142
2.524 -0.198 0.285 139 145 143
2.56 -0.212 0.229 139 145 145
4.945 -0.436 0.321 0 255 0
2.526 -0.13 0.348 138 144 142
2.529 -0.14 0.286 138 144 142
2.55 -0.151 0.228 139 145 145
3.439 -0.219 0.221 140 146 146
2.534 -0.075 0.351 138 144 142
2.534 -0.083 0.287 139 145 143
2.535 -0.091 0.227 139 145 145
3.447 -0.136 0.22 140 146 146
2.535 -0.019 0.353 136 142 142
2.533 -0.026 0.288 139 145 143
2.54 -0.031 0.227 141 147 147
2.545 -0.039 0.162 144 152 151
2.538 0.036 0.355 138 144 144
2.538 0.031 0.289 138 144 142
2.547 0.028 0.228 139 147 146
2.547 0.022 0.161 0 255 0
2.543 0.093 0.358 138 144 144
2.538 0.089 0.291 138 144 142
2.55 0.087 0.228 139 147 146
2.547 0.084 0.16 141 149 150
2.547 0.149 0.36 138 144 142
2.543 0.147 0.293 138 144 142
2.553 0.147 0.229 139 145 145
2.55 0.146 0.16 138 146 145
2.552 0.205 0.363 136 142 140
2.549 0.206 0.295 138 144 142
2.553 0.208 0.23 138 144 144
5 0.408 0.314 138 146 145
2.556 0.262 0.366 136 142 140
2.56 0.265 0.297 138 144 142
2.585 0.271 0.234 137 145 144
5.012 0.531 0.314 138 146 145
2.558 0.319 0.369 136 142 140
2.565 0.324 0.3 135 143 140
2.6 0.335 0.236 137 145 144
5.013 0.655 0.314 138 146 145
2.565 0.378 0.373 135 141 139
2.563 0.384 0.301 136 142 140
2.571 0.392 0.234 137 145 142
5.022 0.78 0.315 138 144 142
2.57 0.436 0.376 134 140 138
2.567 0.444 0.304 135 141 139
2.574 0.455 0.236 134 140 138
2.574 0.464 0.162 127 133 131
2.574 0.495 0.38 84 90 92
2.576 0.507 0.307 97 103 103
2.576 0.518 0.237 99 105 107
2.578 0.53 0.162 97 105 106
2.577 0.555 0.383 78 86 87
2.582 0.569 0.31 26 38 52
2.581 0.582 0.239 12 27 44
2.584 0.597 0.163 28 35 41
2.585 0.617 0.388 15 35 61
2.578 0.63 0.312 15 34 63
2.589 0.648 0.242 20 39 68
2.587 0.663 0.164 32 38 38
2.589 0.678 0.392 108 111 114
2.586 0.695 0.316 103 86 57
2.595 0.715 0.244 118 105 63
2.594 0.733 0.166 24 25 21
2.591 0.74 0.396 124 132 131
4.444 1.303 0.548 81 63 41
4.417 1.33 0.42 117 121 114
4.53 1.4 0.292 18 19 15
4.808 1.489 0.742 34 33 33
4.443 1.413 0.553 70 52 32
4.436 1.45 0.425 87 70 45
4.492 1.51 0.292 16 17 13
4.962 1.656 0.774 18 18 20
4.457 1.531 0.561 83 64 39
4.466 1.577 0.433 84 65 40
4.473 1.624 0.293 20 21 17
4.83 1.732 0.761 8 13 18
4.449 1.642 0.566 75 57 35
4.441 1.686 0.435 70 51 26
4.498 1.758 0.297 18 19 15
4.845 1.858 0.772 15 18 19
4.451 1.759 0.573 85 66 41
4.451 1.811 0.441 84 65 40
4.467 1.873 0.299 16 16 12
4.719 1.93 0.76 15 18 17
4.462 1.881 0.581 71 51 29
4.463 1.938 0.447 83 64 39
4.472 2.004 0.303 21 18 13
4.476 2.008 0.59 87 65 41
4.454 2.061 0.452 84 65 40
4.46 2.13 0.306 19 19 15
4.473 2.132 0.598 71 51 29
4.467 2.195 0.46 86 67 40
4.468 2.269 0.311 48 52 47
4.57 2.232 0.764 5 11 13
4.487 2.264 0.608 86 67 42
3.742 -1.934 1.021 16 16 16
3.354 -1.64 0.91 77 69 66
3.461 -1.599 0.934 14 17 16
3.36 -1.65 0.863 74 67 61
3.741 -1.939 0.914 19 19 19
3.44 -1.594 0.876 16 19 18
3.361 -1.645 0.812 88 79 74
3.742 -1.938 0.851 79 72 66
3.768 -1.644 0.953 18 27 48
3.547 -1.636 0.848 39 39 39
3.353 -1.639 0.751 91 82 77
2.961 -1.137 0.788 19 31 49
2.928 -1.199 0.735 17 28 49
3.765 -1.632 0.891 19 29 47
3.655 -1.679 0.808 70 67 64
2.974 -1.068 0.789 59 57 66
2.949 -1.131 0.736 22 31 52
2.93 -1.19 0.687 23 31 48
3.86 -1.664 0.843 46 42 43
2.977 -0.995 0.787 139 134 130
2.968 -1.062 0.736 137 132 130
2.955 -1.121 0.687 27 35 52
2.912 -1.174 0.628 87 78 83
2.99 -0.927 0.788 0 0 255
2.975 -0.989 0.734 0 255 0
4.042 -1.519 0.862 70 73 76
2.994 -0.857 0.788 255 0 0
2.981 -0.917 0.732 37 37 39
2.586 -0.679 0.679 142 139 134
2.991 -0.846 0.732 0 0 255
4.89 -1.477 1.111 0 255 0
4.883 -1.574 1.02 143 140 135
2.495 -0.597 0.654 142 139 134
2.561 -0.663 0.624 0 0 255
4.886 -1.353 1.103 139 139 135
4.892 -1.451 1.012 143 140 135
2.494 -0.54 0.654 140 140 134
2.491 -0.585 0.605 140 140 134
2.495 -0.629 0.56 141 141 135
4.891 -1.324 1.003 145 142 137
2.498 -0.484 0.654 140 140 134
2.496 -0.527 0.604 51 80 108
2.498 -0.568 0.558 86 93 101
2.499 -0.612 0.508 141 141 137
2.5 -0.427 0.655 138 139 133
2.502 -0.469 0.605 38 73 106
2.501 -0.508 0.556 77 86 96
2.5 -0.55 0.505 110 115 120
2.505 -0.372 0.657 139 140 136
2.501 -0.411 0.603 42 74 106
2.505 -0.448 0.555 116 128 134
2.506 -0.489 0.503 0 255 0
2.511 -0.317 0.659 139 140 136
2.505 -0.354 0.604 140 140 136
2.506 -0.389 0.553 77 73 46
2.513 -0.428 0.501 107 114 120
2.51 -0.261 0.659 139 140 136
2.512 -0.297 0.605 139 140 136
2.51 -0.33 0.553 139 139 139
2.515 -0.366 0.499 128 128 128
2.518 -0.207 0.662 139 140 136
4.946 -0.473 1.191 139 140 136
4.946 -0.534 1.087 140 140 140
2.513 -0.305 0.496 140 140 140
2.521 -0.152 0.664 139 140 136
4.958 -0.362 1.194 140 141 137
4.954 -0.419 1.087 139 139 139
4.948 -0.48 0.974 140 140 140
2.523 -0.097 0.666 139 140 136
2.523 -0.126 0.608 139 139 139
3.391 -0.207 0.743 139 139 139
4.958 -0.362 0.972 140 140 140
2.531 -0.041 0.67 139 140 136
2.526 -0.07 0.609 126 126 128
2.544 -0.096 0.557 131 131 131
4.965 -0.243 0.971 138 141 140
2.529 0.013 0.672 140 141 137
2.527 -0.013 0.611 114 114 114
2.528 -0.036 0.554 124 127 126
2.532 -0.062 0.494 129 132 131
2.533 0.068 0.675 139 140 136
2.537 0.044 0.615 107 107 107
2.531 0.021 0.555 112 115 114
2.534 -0.002 0.494 124 127 128
2.543 0.123 0.681 139 140 136
2.535 0.101 0.616 138 138 138
2.547 0.081 0.559 103 103 103
2.542 0.059 0.495 109 112 113
2.54 0.179 0.683 139 140 136
2.543 0.158 0.62 137 140 139
2.546 0.14 0.56 140 140 140
2.546 0.12 0.496 140 140 140
2.551 0.235 0.689 31 33 39
2.549 0.217 0.624 181 85 82
4.41 0.347 0.972 140 140 140
2.549 0.182 0.497 138 141 140
2.553 0.291 0.693 0 0 255
2.553 0.275 0.627 45 43 50
4.409 0.45 0.975 137 140 139
4.404 0.422 0.86 138 141 140
2.554 0.348 0.698 255 0 0
2.555 0.334 0.63 41 39 46
4.419 0.556 0.981 137 140 139
4.408 0.529 0.863 137 140 139
2.558 0.405 0.703 255 0 0
2.558 0.393 0.634 135 139 134
4.393 0.657 0.979 136 139 138
4.615 0.668 0.906 137 140 139
2.568 0.464 0.71 30 35 42
2.563 0.453 0.639 135 139 134
2.566 0.445 0.575 134 137 136
2.567 0.435 0.506 136 139 138
2.565 0.522 0.714 15 21 19
2.569 0.514 0.645 35 38 41
2.571 0.508 0.579 92 99 91
2.574 0.501 0.509 31 34 33
2.569 0.581 0.72 21 27 29
2.573 0.576 0.65 20 23 26
2.572 0.571 0.582 64 65 59
2.576 0.566 0.512 96 97 88
2.574 0.641 0.727 55 46 39
2.579 0.638 0.656 89 74 62
2.578 0.636 0.588 10 30 56
2.585 0.633 0.517 13 33 59
2.583 0.703 0.736 54 46 34
2.585 0.702 0.663 38 38 40
2.584 0.701 0.593 33 39 41
2.584 0.7 0.52 33 38 43
4.055 1.199 1.165 39 39 33
4.082 1.209 1.056 46 52 52
4.311 1.279 0.998 43 48 53
4.46 1.326 0.905 109 117 114
4.063 1.298 1.177 37 40 39
4.119 1.321 1.074 82 73 68
4.431 1.429 1.035 40 45 50
4.48 1.45 0.916 94 98 93
4.065 1.397 1.189 37 40 39
4.067 1.406 1.07 99 67 33
4.395 1.531 1.035 29 32 33
4.486 1.574 0.925 28 33 38
4.064 1.495 1.2 39 42 45
4.062 1.508 1.08 105 69 32
4.468 1.674 1.063 30 36 38
4.492 1.699 0.935 30 36 38
4.067 1.598 1.214 34 37 40
4.098 1.627 1.101 7 15 14
4.49 1.804 1.079 47 52 57
4.496 1.826 0.946 69 72 75
4.525 1.892 1.365 15 16 12
4.535 1.92 1.231 9 15 13
4.495 1.929 1.093 36 43 47
4.525 1.967 0.963 36 38 44
4.537 2.014 1.384 66 50 29
4.545 2.047 1.249 56 44 26
4.515 2.063 1.11 32 39 43
4.511 2.092 0.971 32 40 41
4.499 2.116 1.389 64 50 33
4.565 2.181 1.269 56 42 25
4.604 2.236 1.147 31 42 53
4.52 2.231 0.986 124 127 128
4.439 2.206 1.386 15 26 37
3.802 -0.732 1.351 86 64 54
2.583 -0.434 0.913 60 42 31
3.627 -0.521 1.277 61 41 33
3.652 -0.437 1.281 42 38 29
3.652 -0.348 1.277 44 41 36
3.604 -0.258 1.257 48 39 32
3.432 -0.164 1.195 35 36 27
3.675 -0.087 1.279 99 78 65
3.729 0 1.297 95 88 78
3.623 0.086 1.26 126 122 115
3.915 0.187 1.363 120 118 110
3.914 0.28 1.364 120 118 110
3.909 0.375 1.365 117 118 109
3.902 0.468 1.367 119 117 109
3.891 0.562 1.367 118 119 110
3.883 0.656 1.37 116 117 108
3.87 0.75 1.372 118 116 108
3.86 0.844 1.375 119 117 109
3.835 0.936 1.375 115 113 105
3.808 1.027 1.374 118 116 108
3.786 1.12 1.377 114 112 104
3.7 -1.95 1.205 40 40 36
3.356 -1.666 1.077 75 68 62
3.35 -1.596 1.173 48 44 37
3.426 -1.598 1.083 56 52 53
3.418 -1.531 1.181 100 96 97
3.721 -1.628 1.161 15 26 47
3.308 -1.39 1.129 28 42 73
3.804 -1.555 1.172 46 43 40
2.957 -1.162 0.997 33 47 78
3.986 -1.517 1.214 35 45 71
3.453 -1.265 1.152 37 51 82
3.794 -1.34 1.142 135 133 125
3.476 -1.182 1.147 48 61 88
3.835 -1.25 1.143 137 133 126
3.517 -1.105 1.149 52 62 88
3.857 -1.155 1.138 137 133 124
3.237 -0.987 1.146 52 60 86
3.541 -1.022 1.147 44 50 77
3.888 -1.062 1.138 138 136 128
3.287 -0.922 1.153 48 61 88
2.492 -0.656 0.8 84 82 91
2.491 -0.616 0.722 141 138 133
3.303 -0.847 1.149 48 61 86
2.493 -0.595 0.794 138 135 130
2.498 -0.554 0.719 141 138 133
3.013 -0.7 1.039 35 41 39
2.497 -0.534 0.789 140 137 132
2.496 -0.49 0.714 141 138 133
3.364 -0.702 1.151 86 84 76
2.5 -0.474 0.785 140 137 132
2.502 -0.428 0.711 142 139 134
3.968 -0.735 1.349 97 93 82
2.509 -0.415 0.782 140 137 132
2.508 -0.367 0.709 139 139 133
4.004 -0.648 1.352 31 31 25
2.503 -0.354 0.776 140 137 132
2.517 -0.306 0.708 140 140 134
3.616 -0.502 1.214 41 40 40
2.507 -0.295 0.773 139 139 133
2.519 -0.245 0.706 139 140 136
3.594 -0.417 1.2 71 69 61
2.514 -0.237 0.772 138 138 132
2.516 -0.183 0.703 139 140 136
3.435 -0.319 1.141 68 68 62
2.517 -0.178 0.77 138 138 132
2.523 -0.122 0.703 139 140 136
3.618 -0.346 1.295 50 48 40
3.419 -0.24 1.13 84 81 76
2.52 -0.119 0.768 139 139 133
2.527 -0.062 0.703 139 140 136
3.572 -0.263 1.271 61 43 32
3.441 -0.164 1.133 44 44 48
2.525 -0.06 0.768 139 140 136
2.535 0 0.704 139 140 136
3.439 -0.178 1.218 57 44 33
2.532 -0.063 0.83 136 127 120
2.53 -0.001 0.768 140 140 136
2.539 0.06 0.704 139 140 136
3.639 -0.108 1.283 31 31 25
2.529 -0.006 0.827 140 138 130
2.534 0.058 0.768 139 140 136
2.542 0.121 0.705 139 140 136
3.661 -0.029 1.286 115 94 77
2.535 0.051 0.827 139 139 133
2.537 0.117 0.768 139 140 136
2.547 0.184 0.707 139 140 136
3.665 0.05 1.282 123 119 112
2.535 0.108 0.825 140 140 134
2.546 0.177 0.77 140 140 136
2.552 0.246 0.71 35 37 43
3.903 0.139 1.361 125 121 114
2.543 0.166 0.827 140 140 136
2.548 0.237 0.771 36 36 40
2.555 0.308 0.712 134 137 136
3.919 0.225 1.363 120 118 110
2.546 0.225 0.826 139 140 136
2.555 0.298 0.774 38 40 48
2.56 0.372 0.715 255 0 0
3.932 0.313 1.364 87 85 77
2.55 0.283 0.828 138 139 135
2.555 0.359 0.775 45 45 49
2.562 0.435 0.718 137 137 133
3.944 0.401 1.366 120 118 110
2.556 0.343 0.83 139 139 135
2.558 0.42 0.777 138 138 134
2.572 0.501 0.724 20 26 24
3.946 0.489 1.365 115 113 105
2.557 0.402 0.83 137 137 133
2.567 0.483 0.781 29 30 24
2.573 0.566 0.728 58 60 51
3.951 0.578 1.365 117 118 109
2.653 0.479 0.862 104 104 98
2.571 0.547 0.785 65 66 57
2.575 0.632 0.732 46 49 48
3.955 0.669 1.365 111 112 103
4.186 0.856 1.362 103 101 91
2.572 0.61 0.788 32 38 38
2.581 0.699 0.738 52 45 37
2.662 0.511 0.919 107 105 95
4.178 0.953 1.363 72 74 63
2.581 0.677 0.794 43 49 51
4.061 1.205 1.17 39 39 33
3.962 0.85 1.368 107 105 95
4.151 1.047 1.358 39 45 45
2.586 0.742 0.8 35 41 43
4.062 1.312 1.179 38 41 40
3.97 0.945 1.372 78 76 68
4.053 1.12 1.33 46 52 54
4.058 1.268 1.263 42 47 52
4.07 1.423 1.191 42 41 43
3.964 1.036 1.372 46 52 54
4.051 1.22 1.334 46 52 54
4.07 1.377 1.274 46 49 52
4.064 1.532 1.199 40 40 42
3.96 1.129 1.373 48 51 52
4.064 1.325 1.344 42 49 53
4.067 1.483 1.282 47 53 55
4.193 1.696 1.249 37 37 39
3.952 1.223 1.373 50 53 56
4.063 1.428 1.35 40 46 48
4.077 1.596 1.294 41 47 49
4.534 1.961 1.365 39 31 19
3.949 1.32 1.376 48 54 56
4.072 1.537 1.36 47 55 56
4.319 1.808 1.382 71 69 59
4.522 2.087 1.377 67 53 36
3.945 1.416 1.378 47 52 57
4.095 1.653 1.376 89 85 88
4.269 1.903 1.379 99 94 74
4.471 2.192 1.378 64 50 33
3.935 1.512 1.381 45 53 54
4.089 1.759 1.383 106 104 92
4.25 2.015 1.385 99 101 85
3.927 1.61 1.384 103 101 91
4.054 1.855 1.381 114 111 95
3.91 1.706 1.385 112 110 98
4.038 1.96 1.387 115 112 98
3.888 1.801 1.384 119 115 104
3.864 1.896 1.384 117 115 103
3.755 -1.929 0.955 18 18 18
3.761 -1.921 0.835 78 74 67
4.202 -2.138 0.803 94 87 79
4.205 -2.141 0.665 98 89 80
3.348 -1.628 0.84 80 72 69
3.354 -1.619 0.733 72 62 62
3.356 -1.61 0.631 87 81 83
3.348 -1.603 0.521 91 87 88
3.753 -1.725 0.928 27 27 27
3.877 -1.764 0.836 82 79 74
4.513 -2.036 0.836 22 28 41
4.521 -2.03 0.693 24 29 45
3.761 -1.63 0.918 16 28 46
3.956 -1.692 0.841 87 79 76
4.542 -1.923 0.83 38 34 27
4.603 -1.935 0.695 53 34 21
2.924 -1.192 0.704 21 31 49
2.919 -1.171 0.612 42 43 34
4.768 -1.887 0.86 44 40 33
2.864 -1.123 0.427 81 56 38
2.954 -1.13 0.703 22 32 50
4.104 -1.54 0.851 50 49 56
4.831 -1.782 0.86 51 49 41
2.864 -1.043 0.421 122 118 109
2.963 -1.06 0.696 139 136 150
4.864 -1.667 0.856 146 141 137
2.868 -0.966 0.417 147 144 139
2.971 -0.99 0.69 245 13 12
4.881 -1.583 0.988 143 140 135
4.877 -1.544 0.848 146 143 138
2.876 -0.892 0.413 146 143 138
2.991 -0.924 0.687 50 46 51
4.889 -1.463 0.978 145 142 137
4.886 -1.422 0.841 146 143 138
2.883 -0.817 0.41 144 145 141
2.994 -0.853 0.68 137 137 133
4.891 -1.344 0.969 143 140 135
4.893 -1.3 0.834 143 143 139
2.56 -0.659 0.361 144 144 144
2.496 -0.653 0.561 141 141 135
2.495 -0.625 0.489 143 143 139
2.499 -0.601 0.422 144 144 140
2.501 -0.579 0.349 143 143 143
2.498 -0.596 0.556 141 141 135
2.502 -0.567 0.486 97 104 110
2.505 -0.541 0.419 85 84 86
2.505 -0.516 0.347 143 143 143
2.498 -0.538 0.551 97 107 114
2.503 -0.508 0.482 91 101 108
2.505 -0.479 0.415 29 32 33
2.508 -0.453 0.345 141 144 143
2.502 -0.482 0.546 107 114 120
2.505 -0.449 0.478 92 104 110
2.513 -0.42 0.414 84 78 80
2.516 -0.392 0.344 141 144 143
2.507 -0.426 0.543 109 116 122
2.508 -0.391 0.475 43 42 51
2.511 -0.359 0.41 140 140 140
2.518 -0.33 0.342 140 143 142
2.509 -0.37 0.538 133 121 92
2.507 -0.332 0.471 139 139 139
2.517 -0.3 0.409 138 141 140
2.523 -0.268 0.341 0 0 255
2.513 -0.314 0.535 139 139 139
4.943 -0.542 0.923 140 140 140
2.507 -0.239 0.405 140 143 142
2.528 -0.207 0.341 255 0 0
4.945 -0.509 1.045 140 140 140
4.955 -0.429 0.919 140 140 140
2.52 -0.181 0.405 140 143 142
2.534 -0.145 0.34 255 0 0
4.958 -0.401 1.04 140 140 140
3.408 -0.217 0.628 138 141 140
2.527 -0.122 0.404 138 141 140
2.536 -0.084 0.34 255 0 0
3.399 -0.199 0.708 140 140 140
4.973 -0.205 0.912 138 141 140
2.53 -0.063 0.403 138 141 140
2.538 -0.023 0.339 138 144 144
4.974 -0.183 1.029 131 134 133
2.533 -0.046 0.462 131 134 133
2.538 -0.003 0.403 138 141 140
2.545 0.038 0.34 139 145 145
2.531 -0.037 0.521 126 129 130
2.534 0.011 0.46 127 130 131
2.541 0.056 0.403 138 144 142
2.545 0.101 0.34 138 144 144
2.533 0.018 0.518 0 255 0
2.537 0.069 0.459 110 113 114
2.545 0.116 0.402 136 142 140
2.548 0.163 0.34 138 144 142
2.537 0.074 0.516 106 109 110
2.546 0.127 0.459 138 141 140
2.547 0.176 0.402 138 144 142
2.554 0.225 0.342 136 142 140
2.548 0.131 0.516 139 139 139
2.548 0.185 0.458 140 143 142
2.555 0.237 0.403 138 144 142
2.562 0.289 0.344 138 144 142
2.549 0.187 0.513 137 140 141
4.717 0.452 0.845 138 144 142
2.554 0.297 0.403 136 142 140
2.562 0.352 0.345 136 142 140
4.413 0.421 0.885 138 141 142
4.721 0.56 0.845 136 142 140
2.559 0.359 0.404 136 142 140
2.571 0.416 0.347 135 141 139
4.411 0.52 0.881 137 140 139
5.017 0.711 0.897 136 142 140
2.567 0.422 0.405 135 141 139
2.577 0.482 0.349 35 37 45
4.601 0.647 0.916 137 140 139
2.569 0.424 0.458 135 141 139
2.572 0.485 0.407 102 105 104
2.581 0.548 0.352 15 25 39
2.569 0.419 0.51 136 139 138
2.569 0.485 0.458 44 50 52
2.579 0.549 0.409 105 105 105
2.585 0.615 0.354 14 33 62
2.568 0.477 0.508 37 43 43
2.574 0.547 0.459 86 92 94
2.581 0.614 0.41 15 33 60
2.586 0.681 0.357 68 57 50
2.572 0.537 0.508 25 31 29
2.58 0.61 0.46 14 34 60
2.588 0.68 0.413 28 25 20
2.592 0.75 0.36 64 54 52
2.577 0.598 0.508 18 30 34
2.583 0.674 0.461 44 42 34
2.589 0.745 0.415 29 24 20
4.449 1.405 0.624 112 118 116
2.585 0.66 0.509 37 42 47
2.586 0.737 0.462 37 33 24
4.8 1.505 0.774 26 18 15
4.509 1.544 0.638 29 37 54
2.589 0.723 0.509 40 45 50
4.466 1.386 0.8 26 32 30
4.855 1.648 0.787 7 13 11
4.62 1.709 0.66 30 35 42
4.462 1.354 0.877 41 47 49
4.476 1.502 0.804 25 31 29
4.818 1.763 0.785 6 12 12
5.108 2.03 0.738 27 32 41
4.479 1.469 0.88 37 43 45
4.486 1.619 0.809 29 29 31
4.779 1.877 0.785 15 15 15
4.574 1.948 0.668 21 27 40
4.49 1.584 0.883 16 22 24
4.489 1.738 0.813 31 33 24
4.695 1.972 0.777 8 11 10
4.562 2.073 0.675 18 28 44
4.502 1.703 0.886 29 35 37
4.51 1.866 0.82 29 26 21
4.758 2.132 0.794 6 12 12
5.151 2.492 0.772 16 25 37
4.504 1.818 0.887 42 48 50
4.516 1.991 0.825 14 18 13
4.512 1.94 0.891 33 39 39
4.518 2.117 0.83 18 24 22
4.619 2.335 0.785 5 11 11
4.526 2.067 0.895 19 25 27
4.521 2.246 0.836 13 19 17
4.521 2.188 0.897 37 43 45
4.196 -2.161 0.519 69 48 31
4.192 -2.175 0.376 75 50 30
4.185 -2.191 0.236 76 53 32
3.35 -1.633 0.408 100 96 87
3.346 -1.64 0.294 102 92 90
3.334 -1.648 0.184 92 86 73
3.305 -1.654 0.063 18 18 14
4.451 -2.049 0.533 71 50 33
3.443 -1.592 0.297 76 52 36
3.422 -1.592 0.184 77 62 50
3.307 -1.556 0.061 21 20 20
4.527 -1.964 0.534 78 55 34
4.519 -1.966 0.383 85 63 39
4.563 -1.995 0.24 92 67 47
4.832 -2.133 0.085 96 72 56
4.805 -1.96 0.558 31 24 16
4.759 -1.943 0.397 42 32 20
4.806 -1.968 0.248 67 44 25
4.835 -1.996 0.082 129 124 120
4.851 -1.855 0.555 89 70 57
4.85 -1.852 0.397 93 69 46
4.846 -1.853 0.245 111 91 71
4.839 -1.861 0.079 133 128 124
4.862 -1.737 0.548 129 122 116
4.857 -1.728 0.391 133 123 121
4.86 -1.728 0.241 136 128 125
4.855 -1.732 0.076 136 133 130
4.867 -1.619 0.541 147 144 139
4.868 -1.608 0.386 149 146 143
4.875 -1.605 0.237 148 148 144
4.867 -1.605 0.073 153 149 150
4.871 -1.501 0.533 148 145 142
4.875 -1.489 0.381 147 147 143
4.878 -1.479 0.232 148 148 144
4.866 -1.475 0.071 42 41 45
4.882 -1.387 0.527 146 146 142
4.879 -1.368 0.375 146 147 143
4.882 -1.357 0.229 147 147 147
4.878 -1.349 0.069 44 44 46
4.893 -1.275 0.521 145 146 142
2.5 -0.64 0.189 145 145 145
2.507 -0.633 0.115 149 150 146
2.509 -0.629 0.034 151 151 151
2.502 -0.593 0.263 145 145 145
2.504 -0.581 0.187 146 146 146
2.513 -0.572 0.114 142 145 144
2.509 -0.564 0.033 148 151 150
2.504 -0.535 0.259 145 145 145
2.507 -0.521 0.185 142 145 148
2.514 -0.51 0.112 143 146 147
2.514 -0.502 0.032 147 150 149
2.51 -0.478 0.257 145 145 145
2.511 -0.462 0.182 140 146 148
2.518 -0.45 0.11 142 148 148
2.518 -0.439 0.032 146 152 152
2.512 -0.421 0.254 142 145 144
2.518 -0.404 0.18 39 49 56
2.528 -0.39 0.109 142 148 148
2.523 -0.377 0.031 143 149 149
2.516 -0.365 0.251 142 145 144
2.523 -0.347 0.179 140 146 146
2.53 -0.33 0.108 141 147 147
2.533 -0.315 0.03 142 148 148
2.522 -0.309 0.249 139 145 143
2.52 -0.288 0.176 140 146 146
3.444 -0.368 0.145 141 147 147
4.939 -0.496 0.059 142 148 148
2.523 -0.253 0.246 139 145 143
4.947 -0.451 0.342 140 146 146
3.432 -0.285 0.143 141 147 147
4.942 -0.374 0.058 142 148 148
2.534 -0.198 0.244 139 145 145
3.432 -0.234 0.235 140 146 146
3.446 -0.204 0.142 141 147 147
4.953 -0.253 0.057 141 149 148
2.536 -0.141 0.241 139 145 145
3.458 -0.156 0.233 139 145 145
3.448 -0.123 0.14 143 149 149
2.548 -0.068 0.029 141 149 146
2.535 -0.085 0.238 139 145 145
2.539 -0.057 0.17 145 151 151
2.549 -0.031 0.103 146 154 153
2.548 -0.007 0.029 144 152 149
2.542 -0.029 0.236 139 145 145
2.544 0.001 0.168 144 152 153
2.551 0.028 0.102 146 154 155
2.553 0.055 0.029 139 150 148
2.548 0.027 0.235 139 147 146
2.543 0.059 0.166 141 149 150
2.556 0.089 0.101 143 154 154
2.552 0.117 0.029 141 149 148
2.546 0.083 0.232 140 148 147
2.545 0.118 0.165 140 148 149
2.556 0.149 0.1 138 146 145
2.559 0.18 0.029 140 148 145
2.549 0.14 0.23 139 145 145
2.552 0.176 0.164 138 146 145
4.996 0.411 0.195 138 146 145
2.56 0.242 0.029 36 41 48
2.552 0.197 0.227 138 144 144
5.006 0.462 0.319 137 145 144
5.01 0.531 0.194 138 146 143
5.009 0.598 0.058 39 49 54
2.577 0.257 0.227 137 145 144
5.016 0.579 0.317 138 146 145
5.014 0.65 0.194 137 145 142
2.573 0.37 0.03 140 147 141
2.624 0.321 0.229 137 145 144
5.023 0.696 0.315 138 146 145
5.023 0.773 0.193 138 146 143
2.574 0.434 0.03 139 145 143
2.569 0.372 0.222 135 143 142
2.574 0.417 0.16 137 145 142
2.577 0.459 0.098 135 143 140
2.584 0.501 0.031 106 114 115
2.571 0.431 0.22 135 143 140
2.574 0.478 0.159 110 116 116
2.582 0.523 0.098 102 110 111
2.587 0.567 0.031 12 24 38
2.58 0.492 0.219 105 111 113
2.578 0.54 0.158 91 99 100
2.589 0.588 0.098 9 22 33
2.591 0.635 0.032 14 38 68
2.577 0.551 0.217 17 32 47
2.583 0.603 0.157 34 49 62
2.591 0.653 0.098 19 40 69
2.597 0.703 0.033 41 51 56
2.588 0.614 0.215 16 35 64
2.591 0.668 0.156 26 36 39
2.596 0.72 0.098 130 140 143
4.443 1.32 0.058 132 140 139
2.59 0.675 0.214 70 56 39
2.598 0.734 0.156 22 25 26
4.427 1.341 0.168 96 106 111
4.446 1.439 0.06 131 142 142
2.601 0.741 0.212 95 77 55
4.72 1.451 0.282 20 20 20
4.438 1.459 0.169 132 140 141
5.086 1.784 0.07 33 43 48
4.433 1.37 0.359 80 68 52
4.777 1.589 0.284 18 18 18
4.45 1.58 0.169 18 37 57
5.095 1.927 0.072 49 55 57
4.449 1.486 0.357 99 82 41
4.698 1.684 0.278 12 18 18
4.462 1.704 0.17 18 36 59
4.923 1.998 0.072 51 54 55
4.451 1.597 0.355 76 57 32
4.776 1.837 0.282 14 17 16
4.475 1.831 0.171 19 35 56
4.673 2.031 0.071 13 19 19
4.452 1.711 0.352 81 64 39
5.004 2.057 0.294 14 17 18
4.492 1.963 0.173 7 27 51
4.522 2.098 0.071 19 25 27
4.458 1.829 0.349 79 63 40
5.111 2.241 0.299 15 21 21
4.495 2.092 0.174 10 28 51
4.536 2.239 0.074 39 49 54
4.465 1.951 0.347 85 66 41
5.136 2.393 0.3 18 24 24
4.505 2.227 0.175 18 34 55
4.46 2.068 0.344 85 66 41
5.087 2.515 0.296 18 26 27
4.465 2.194 0.341 91 69 45
3.277 -1.685 0.102 84 74 60
4.799 -2.501 -0.025 9 5 8
3.283 -1.596 0.1 61 53 50
3.294 -1.622 -0.018 44 36 35
3.308 -1.65 -0.137 111 105 92
4.797 -2.438 -0.392 139 132 126
3.441 -1.579 0.103 71 67 60
3.318 -1.541 -0.02 33 33 29
3.32 -1.561 -0.138 142 136 140
3.344 -1.6 -0.272 24 23 27
4.837 -2.091 0.141 94 74 52
4.826 -2.107 -0.031 131 123 120
4.829 -2.133 -0.202 136 131 129
4.821 -2.165 -0.391 138 131 125
4.84 -1.966 0.138 126 121 117
4.835 -1.981 -0.033 135 127 124
4.834 -2 -0.203 139 131 128
4.831 -2.029 -0.391 141 133 130
4.85 -1.844 0.135 133 128 124
4.846 -1.856 -0.035 141 133 130
4.841 -1.871 -0.203 143 135 132
4.837 -1.896 -0.39 143 135 132
4.858 -1.724 0.132 136 133 130
4.853 -1.733 -0.037 139 136 133
4.856 -1.747 -0.205 144 139 135
4.847 -1.766 -0.39 146 141 137
4.861 -1.604 0.129 152 149 146
4.866 -1.612 -0.039 152 152 148
4.858 -1.62 -0.205 154 153 153
4.852 -1.636 -0.39 149 146 143
4.874 -1.488 0.126 147 147 147
4.871 -1.491 -0.041 43 42 51
4.87 -1.497 -0.207 0 255 0
4.858 -1.509 -0.389 148 148 144
4.882 -1.373 0.123 144 148 143
4.876 -1.372 -0.043 255 0 0
4.878 -1.375 -0.208 50 46 51
4.868 -1.384 -0.389 152 152 152
2.505 -0.645 0.061 149 149 149
2.51 -0.644 -0.023 0 0 255
2.52 -0.647 -0.107 154 154 154
4.879 -1.26 -0.39 155 155 155
2.506 -0.585 0.059 150 150 150
2.513 -0.583 -0.024 152 152 152
2.513 -0.582 -0.108 154 155 151
2.516 -0.584 -0.2 156 159 160
2.514 -0.528 0.058 145 148 149
2.512 -0.523 -0.025 150 153 152
2.518 -0.52 -0.108 152 155 154
2.518 -0.521 -0.2 159 162 163
2.515 -0.47 0.056 147 150 151
2.514 -0.463 -0.026 149 152 151
2.519 -0.459 -0.109 151 154 153
2.521 -0.458 -0.201 160 166 166
2.52 -0.413 0.055 146 152 152
2.521 -0.405 -0.028 146 152 150
2.527 -0.399 -0.11 148 154 152
2.526 -0.397 -0.201 161 169 168
2.522 -0.356 0.053 143 149 149
2.524 -0.346 -0.029 146 152 152
2.531 -0.34 -0.11 149 155 153
2.527 -0.334 -0.201 162 170 169
2.523 -0.299 0.051 142 148 148
2.529 -0.288 -0.03 145 151 151
2.538 -0.28 -0.111 147 153 151
2.534 -0.273 -0.201 162 170 169
4.939 -0.475 0.097 141 147 147
2.535 -0.231 -0.031 145 151 151
2.54 -0.219 -0.112 147 155 152
2.532 -0.21 -0.201 162 170 169
4.949 -0.364 0.094 142 148 148
2.535 -0.171 -0.033 142 150 149
2.543 -0.159 -0.113 146 154 151
2.536 -0.148 -0.201 162 170 169
4.948 -0.252 0.09 142 148 148
2.54 -0.113 -0.034 142 150 149
2.549 -0.099 -0.114 146 154 151
2.541 -0.087 -0.202 159 170 170
2.543 -0.073 0.044 141 149 148
2.549 -0.055 -0.035 142 150 149
2.551 -0.039 -0.115 146 154 151
2.546 -0.025 -0.202 159 170 170
2.547 -0.016 0.042 145 153 152
2.545 0.002 -0.036 144 152 151
2.551 0.02 -0.115 145 153 152
2.554 0.035 -0.203 158 169 169
2.546 0.04 0.041 146 154 153
2.548 0.061 -0.038 142 150 149
2.555 0.08 -0.116 143 154 152
2.549 0.097 -0.203 157 168 168
2.552 0.097 0.039 140 148 147
2.551 0.12 -0.039 141 149 148
2.561 0.141 -0.118 142 153 151
2.556 0.16 -0.204 155 166 166
2.556 0.155 0.037 139 147 146
2.557 0.179 -0.041 140 148 145
2.563 0.202 -0.119 142 150 147
2.562 0.223 -0.205 155 166 166
2.556 0.212 0.035 140 146 144
2.558 0.239 -0.042 32 37 46
2.562 0.263 -0.119 142 150 147
2.575 0.287 -0.206 153 164 164
5.01 0.53 0.064 34 41 47
2.568 0.299 -0.044 25 30 35
2.571 0.326 -0.121 141 149 148
2.577 0.351 -0.207 152 163 163
5.009 0.643 0.06 138 142 137
2.567 0.359 -0.045 135 143 142
2.576 0.388 -0.122 141 149 148
2.578 0.415 -0.207 148 159 159
2.57 0.388 0.028 40 47 55
2.572 0.42 -0.047 140 147 141
2.579 0.451 -0.123 141 149 148
5.02 0.934 -0.405 145 156 156
2.578 0.448 0.026 139 145 143
2.577 0.482 -0.049 113 121 122
2.584 0.515 -0.125 111 119 120
4.996 1.055 -0.404 131 138 142
2.583 0.509 0.024 105 113 114
2.586 0.546 -0.051 97 105 106
2.593 0.581 -0.126 12 25 36
4.807 1.138 -0.39 16 28 42
2.584 0.57 0.022 7 22 35
2.59 0.609 -0.053 32 51 71
2.594 0.646 -0.127 19 43 71
4.402 1.157 -0.358 25 43 66
2.595 0.634 0.019 13 36 71
2.585 0.671 -0.054 32 42 45
2.596 0.712 -0.129 25 32 38
4.404 1.272 -0.359 54 64 71
2.59 0.694 0.017 37 47 52
2.598 0.739 -0.056 42 48 50
4.585 1.375 -0.23 21 27 29
4.419 1.393 -0.362 61 73 79
2.604 0.761 0.014 130 141 139
4.449 1.377 -0.1 39 49 54
4.548 1.481 -0.231 22 25 26
4.429 1.514 -0.364 47 59 65
4.441 1.407 0.02 130 140 145
4.45 1.491 -0.104 40 46 46
5.063 1.782 -0.259 32 38 38
4.461 1.648 -0.368 41 51 56
4.451 1.52 0.016 39 49 54
5.08 1.832 -0.122 38 46 47
5.073 1.921 -0.263 27 37 40
4.485 1.782 -0.372 64 74 81
5.091 1.869 0.013 45 53 54
5.1 1.974 -0.127 39 45 45
5.081 2.065 -0.267 16 30 36
4.493 1.912 -0.375 64 74 81
5.059 1.988 0.007 43 49 51
4.866 2.013 -0.125 35 41 41
4.684 2.033 -0.249 12 21 33
4.511 2.051 -0.378 44 54 59
4.817 2.019 0.001 33 41 40
4.616 2.036 -0.123 17 17 17
4.526 2.092 -0.243 19 26 30
4.525 2.19 -0.381 59 69 76
4.54 2.024 -0.003 14 20 20
4.523 2.121 -0.124 27 27 21
4.531 2.226 -0.247 20 29 41
4.534 2.332 -0.384 74 80 93
4.532 2.144 -0.009 31 39 40
4.541 2.259 -0.129 51 47 48
4.538 2.273 -0.015 50 57 61
